<svg width="55" height="30" viewBox="0 0 55 30" fill="none" xmlns="http://www.w3.org/2000/svg">
<path d="M19.3667 18H21.1367L22.9217 12.015C23.2967 10.815 23.6267 9.585 23.9567 8.34H24.0167C24.3617 9.57 24.6917 10.815 25.0667 12.015L26.8367 18H28.6817L25.0367 6.96H23.0117L19.3667 18ZM21.4217 14.865H26.5817V13.5H21.4217V14.865ZM31.7128 18.21C32.1478 18.21 32.4178 18.135 32.6428 18.06L32.4178 16.755C32.2678 16.785 32.2078 16.785 32.1328 16.785C31.9228 16.785 31.7278 16.62 31.7278 16.155V6.06H29.9878V16.065C29.9878 17.4 30.4528 18.21 31.7128 18.21ZM36.1805 18.21C36.6155 18.21 36.8855 18.135 37.1105 18.06L36.8855 16.755C36.7355 16.785 36.6755 16.785 36.6005 16.785C36.3905 16.785 36.1955 16.62 36.1955 16.155V6.06H34.4555V16.065C34.4555 17.4 34.9205 18.21 36.1805 18.21Z" fill="#111111"/>
<rect y="27" width="55" height="3" fill="#ADA2D7"/>
</svg>
