<svg width="70" height="30" viewBox="0 0 70 30" fill="none" xmlns="http://www.w3.org/2000/svg">
<rect width="70" height="30" rx="10" fill="#777777"/>
<path d="M25.3862 11.085V11.25C25.3862 12.45 24.4412 13.59 22.2962 13.98L23.0912 15.525C25.7612 14.985 26.9912 13.305 26.9912 11.25V11.085H25.3862ZM25.7912 11.085V11.25C25.7912 13.215 27.0212 14.82 29.6462 15.315L30.4262 13.785C28.3262 13.41 27.3962 12.375 27.3962 11.25V11.085H25.7912ZM22.6712 9.825V11.355H30.0962V9.825H22.6712ZM25.3862 8.475V10.92H27.3962V8.475H25.3862ZM25.3712 16.335V21.915H27.3662V16.335H25.3712ZM31.4462 8.445V22.335H33.4262V8.445H31.4462ZM22.0862 17.73C24.5612 17.73 27.7862 17.685 30.7862 17.145L30.6512 15.705C27.7412 16.095 24.3662 16.11 21.8462 16.11L22.0862 17.73ZM35.615 19.08V20.715H48.185V19.08H35.615ZM40.835 15.99V19.515H42.815V15.99H40.835ZM40.76 9.21V10.215C40.76 12.135 39.065 14.265 35.9 14.775L36.725 16.44C40.355 15.78 42.5 13.17 42.5 10.215V9.21H40.76ZM41.15 9.21V10.215C41.15 13.215 43.295 15.765 46.94 16.44L47.765 14.775C44.585 14.265 42.89 12.18 42.89 10.215V9.21H41.15Z" fill="white"/>
</svg>
