<svg width="62" height="30" viewBox="0 0 62 30" fill="none" xmlns="http://www.w3.org/2000/svg">
<rect y="27" width="62" height="3" fill="#ADA2D7"/>
<path d="M5.06777 8.145H9.82277V6.885H3.52277V15.84H4.63277C7.07777 15.84 8.90777 15.765 10.9628 15.39L10.7978 14.115C8.90777 14.445 7.25777 14.535 5.06777 14.55V8.145ZM15.5828 10.815H13.4678V5.595H11.9228V19.17H13.4678V12.09H15.5828V10.815ZM25.9766 8.415H18.3266V11.97H27.7766V10.785H19.8416V9.525H27.5066V6H18.2966V7.185H25.9766V8.415ZM19.8866 15.21H18.3416V18.9H27.8066V17.64H19.8866V15.21ZM16.7516 13.035V14.28H29.0516V13.035H16.7516ZM41.7046 10.755C40.0696 11.1 38.6146 11.175 36.0496 11.19V7.71H40.5046V6.45H34.5046V12.45H35.5996C38.5096 12.45 40.0996 12.375 41.8546 12L41.7046 10.755ZM42.9946 17.7H37.3846V16.245H42.9946V17.7ZM42.9946 15.03H37.3846V13.545H35.8546V18.96H44.5246V13.545H42.9946V15.03ZM46.4446 8.67H44.5246V5.595H42.9796V12.84H44.5246V9.945H46.4446V8.67ZM57.4234 9.24V10.905H54.6034V9.24H57.4234ZM53.0884 12.165H49.8934V9.96H53.0884V12.165ZM54.6034 12.165H57.4234V15.63H58.9684V5.625H57.4234V7.995H54.6034V6.51H53.0884V8.745H49.8934V6.51H48.3634V13.425H54.6034V12.165ZM51.7084 17.64V14.655H50.1484V18.9H59.2834V17.64H51.7084Z" fill="#111111"/>
</svg>
