<svg width="70" height="30" viewBox="0 0 70 30" fill="none" xmlns="http://www.w3.org/2000/svg">
<rect width="70" height="30" rx="10" fill="#111111"/>
<path d="M27.0362 8.85V9.495C27.0362 11.13 25.4612 12.945 22.2662 13.365L23.0462 14.97C26.6912 14.43 28.7912 12.165 28.7912 9.495V8.85H27.0362ZM27.4112 8.85V9.495C27.4112 12.165 29.5112 14.43 33.1562 14.97L33.9212 13.365C30.7412 12.945 29.1512 11.115 29.1512 9.495V8.85H27.4112ZM27.0512 17.25V22.335H29.0312V17.25H27.0512ZM21.8162 15.99V17.61H34.3712V15.99H21.8162ZM43.13 11.805V13.425H45.77V11.805H43.13ZM45.23 8.445V16.695H47.225V8.445H45.23ZM42.515 16.995C39.575 16.995 37.76 18 37.76 19.68C37.76 21.375 39.575 22.35 42.515 22.35C45.455 22.35 47.27 21.375 47.27 19.68C47.27 18 45.455 16.995 42.515 16.995ZM42.515 18.51C44.33 18.51 45.29 18.885 45.29 19.68C45.29 20.46 44.33 20.835 42.515 20.835C40.715 20.835 39.755 20.46 39.755 19.68C39.755 18.885 40.715 18.51 42.515 18.51ZM38.81 9.84V10.71C38.81 12.495 37.82 14.34 35.525 15.12L36.545 16.695C39.2 15.795 40.43 13.365 40.43 10.71V9.84H38.81ZM39.23 9.84V10.71C39.23 13.185 40.415 15.495 42.995 16.35L43.97 14.775C41.78 14.04 40.835 12.345 40.835 10.71V9.84H39.23ZM36.065 9.285V10.875H43.535V9.285H36.065Z" fill="white"/>
</svg>
