<svg width="85" height="30" viewBox="0 0 85 30" fill="none" xmlns="http://www.w3.org/2000/svg">
<rect width="85" height="30" rx="10" fill="black"/>
<path d="M14.0033 10.0469V20H12.2875V10.0469H14.0033ZM18.0639 14.4014V15.7617H13.5658V14.4014H18.0639ZM18.6313 10.0469V11.4141H13.5658V10.0469H18.6313ZM21.4109 14.0117V20H19.7635V12.6035H21.3357L21.4109 14.0117ZM23.6736 12.5557L23.66 14.0869C23.5597 14.0687 23.4503 14.055 23.3318 14.0459C23.2179 14.0368 23.104 14.0322 22.99 14.0322C22.7075 14.0322 22.4591 14.0732 22.2449 14.1553C22.0307 14.2327 21.8507 14.3467 21.7049 14.4971C21.5636 14.6429 21.4542 14.8206 21.3768 15.0303C21.2993 15.2399 21.2537 15.4746 21.24 15.7344L20.8641 15.7617C20.8641 15.2969 20.9096 14.8662 21.0008 14.4697C21.0919 14.0732 21.2286 13.7246 21.4109 13.4238C21.5978 13.123 21.8302 12.8883 22.1082 12.7197C22.3908 12.5511 22.7166 12.4668 23.0857 12.4668C23.186 12.4668 23.2931 12.4759 23.407 12.4941C23.5255 12.5124 23.6144 12.5329 23.6736 12.5557ZM24.3137 16.3838V16.2266C24.3137 15.6934 24.3911 15.1989 24.5461 14.7432C24.701 14.2829 24.9243 13.8841 25.216 13.5469C25.5122 13.2051 25.8723 12.9408 26.2961 12.7539C26.7245 12.5625 27.2076 12.4668 27.7453 12.4668C28.2876 12.4668 28.7707 12.5625 29.1945 12.7539C29.6229 12.9408 29.9852 13.2051 30.2814 13.5469C30.5777 13.8841 30.8033 14.2829 30.9582 14.7432C31.1132 15.1989 31.1906 15.6934 31.1906 16.2266V16.3838C31.1906 16.917 31.1132 17.4115 30.9582 17.8672C30.8033 18.3229 30.5777 18.7217 30.2814 19.0635C29.9852 19.4007 29.6252 19.665 29.2014 19.8564C28.7775 20.0433 28.2967 20.1367 27.759 20.1367C27.2167 20.1367 26.7313 20.0433 26.3029 19.8564C25.8791 19.665 25.5191 19.4007 25.2229 19.0635C24.9266 18.7217 24.701 18.3229 24.5461 17.8672C24.3911 17.4115 24.3137 16.917 24.3137 16.3838ZM25.9611 16.2266V16.3838C25.9611 16.7165 25.9953 17.0309 26.0637 17.3271C26.132 17.6234 26.2391 17.8831 26.385 18.1064C26.5308 18.3298 26.7176 18.5052 26.9455 18.6328C27.1734 18.7604 27.4445 18.8242 27.759 18.8242C28.0643 18.8242 28.3286 18.7604 28.552 18.6328C28.7798 18.5052 28.9667 18.3298 29.1125 18.1064C29.2583 17.8831 29.3654 17.6234 29.4338 17.3271C29.5067 17.0309 29.5432 16.7165 29.5432 16.3838V16.2266C29.5432 15.8984 29.5067 15.5885 29.4338 15.2969C29.3654 15.0007 29.2561 14.7386 29.1057 14.5107C28.9598 14.2829 28.773 14.1051 28.5451 13.9775C28.3218 13.8454 28.0552 13.7793 27.7453 13.7793C27.4354 13.7793 27.1665 13.8454 26.9387 13.9775C26.7154 14.1051 26.5308 14.2829 26.385 14.5107C26.2391 14.7386 26.132 15.0007 26.0637 15.2969C25.9953 15.5885 25.9611 15.8984 25.9611 16.2266ZM34.3053 14.1826V20H32.6578V12.6035H34.2096L34.3053 14.1826ZM34.0113 16.0283L33.4781 16.0215C33.4827 15.4974 33.5556 15.0166 33.6969 14.5791C33.8427 14.1416 34.0432 13.7656 34.2984 13.4512C34.5582 13.1367 34.8681 12.8952 35.2281 12.7266C35.5882 12.5534 35.9892 12.4668 36.4312 12.4668C36.7867 12.4668 37.108 12.5169 37.3951 12.6172C37.6868 12.7129 37.9352 12.8701 38.1402 13.0889C38.3499 13.3076 38.5094 13.5924 38.6187 13.9434C38.7281 14.2897 38.7828 14.7158 38.7828 15.2217V20H37.1285V15.2148C37.1285 14.8594 37.0761 14.5791 36.9713 14.374C36.871 14.1644 36.7229 14.0163 36.527 13.9297C36.3355 13.8385 36.0963 13.793 35.8092 13.793C35.5266 13.793 35.2737 13.8522 35.0504 13.9707C34.8271 14.0892 34.638 14.251 34.483 14.4561C34.3326 14.6611 34.2164 14.8981 34.1344 15.167C34.0523 15.4359 34.0113 15.723 34.0113 16.0283ZM43.9551 12.6035V13.8066H39.7852V12.6035H43.9551ZM40.9883 10.792H42.6357V17.9561C42.6357 18.1839 42.6676 18.3594 42.7314 18.4824C42.7998 18.6009 42.8932 18.6807 43.0117 18.7217C43.1302 18.7627 43.2692 18.7832 43.4287 18.7832C43.5426 18.7832 43.652 18.7764 43.7568 18.7627C43.8617 18.749 43.946 18.7354 44.0098 18.7217L44.0166 19.9795C43.8799 20.0205 43.7204 20.057 43.5381 20.0889C43.3604 20.1208 43.1553 20.1367 42.9229 20.1367C42.5446 20.1367 42.2096 20.0706 41.918 19.9385C41.6263 19.8018 41.3984 19.5807 41.2344 19.2754C41.0703 18.9701 40.9883 18.5645 40.9883 18.0586V10.792ZM48.642 15.0918V16.4043H45.0258V15.0918H48.642ZM53.4451 20.1367C52.8982 20.1367 52.4038 20.0479 51.9617 19.8701C51.5242 19.6878 51.1505 19.4349 50.8406 19.1113C50.5353 18.7878 50.3006 18.4072 50.1365 17.9697C49.9725 17.5322 49.8904 17.0605 49.8904 16.5547V16.2812C49.8904 15.7025 49.9747 15.1784 50.1434 14.709C50.312 14.2396 50.5467 13.8385 50.8475 13.5059C51.1482 13.1686 51.5037 12.9111 51.9139 12.7334C52.324 12.5557 52.7684 12.4668 53.2469 12.4668C53.7755 12.4668 54.2381 12.5557 54.6346 12.7334C55.0311 12.9111 55.3592 13.1618 55.6189 13.4854C55.8833 13.8044 56.0792 14.1849 56.2068 14.627C56.339 15.069 56.4051 15.5566 56.4051 16.0898V16.7939H50.6902V15.6113H54.7781V15.4814C54.769 15.1852 54.7098 14.9072 54.6004 14.6475C54.4956 14.3877 54.3338 14.1781 54.115 14.0186C53.8963 13.859 53.6046 13.7793 53.24 13.7793C52.9666 13.7793 52.7228 13.8385 52.5086 13.957C52.299 14.071 52.1235 14.2373 51.9822 14.4561C51.8409 14.6748 51.7316 14.9391 51.6541 15.249C51.5812 15.5544 51.5447 15.8984 51.5447 16.2812V16.5547C51.5447 16.8783 51.588 17.179 51.6746 17.457C51.7658 17.7305 51.8979 17.9697 52.0711 18.1748C52.2443 18.3799 52.4539 18.5417 52.7 18.6602C52.9461 18.7741 53.2264 18.8311 53.5408 18.8311C53.9373 18.8311 54.2905 18.7513 54.6004 18.5918C54.9103 18.4323 55.1792 18.2067 55.407 17.915L56.2752 18.7559C56.1157 18.9883 55.9083 19.2116 55.6531 19.4258C55.3979 19.6354 55.0857 19.8063 54.7166 19.9385C54.352 20.0706 53.9282 20.1367 53.4451 20.1367ZM59.424 14.1826V20H57.7766V12.6035H59.3283L59.424 14.1826ZM59.1301 16.0283L58.5969 16.0215C58.6014 15.4974 58.6744 15.0166 58.8156 14.5791C58.9615 14.1416 59.162 13.7656 59.4172 13.4512C59.677 13.1367 59.9869 12.8952 60.3469 12.7266C60.7069 12.5534 61.1079 12.4668 61.55 12.4668C61.9055 12.4668 62.2268 12.5169 62.5139 12.6172C62.8055 12.7129 63.0539 12.8701 63.259 13.0889C63.4686 13.3076 63.6281 13.5924 63.7375 13.9434C63.8469 14.2897 63.9016 14.7158 63.9016 15.2217V20H62.2473V15.2148C62.2473 14.8594 62.1949 14.5791 62.09 14.374C61.9898 14.1644 61.8417 14.0163 61.6457 13.9297C61.4543 13.8385 61.215 13.793 60.9279 13.793C60.6454 13.793 60.3925 13.8522 60.1691 13.9707C59.9458 14.0892 59.7567 14.251 59.6018 14.4561C59.4514 14.6611 59.3352 14.8981 59.2531 15.167C59.1711 15.4359 59.1301 15.723 59.1301 16.0283ZM70.1949 18.4688V9.5H71.8492V20H70.3521L70.1949 18.4688ZM65.3824 16.3838V16.2402C65.3824 15.6797 65.4485 15.1693 65.5807 14.709C65.7128 14.2441 65.9042 13.8454 66.1549 13.5127C66.4055 13.1755 66.7109 12.918 67.0709 12.7402C67.4309 12.5579 67.8365 12.4668 68.2877 12.4668C68.7343 12.4668 69.1262 12.5534 69.4635 12.7266C69.8007 12.8997 70.0878 13.1481 70.3248 13.4717C70.5618 13.7907 70.7509 14.1735 70.8922 14.6201C71.0335 15.0622 71.1337 15.5544 71.193 16.0967V16.5547C71.1337 17.0833 71.0335 17.5664 70.8922 18.0039C70.7509 18.4414 70.5618 18.8197 70.3248 19.1387C70.0878 19.4577 69.7984 19.7038 69.4566 19.877C69.1194 20.0501 68.7252 20.1367 68.274 20.1367C67.8274 20.1367 67.4241 20.0433 67.0641 19.8564C66.7086 19.6696 66.4055 19.4076 66.1549 19.0703C65.9042 18.7331 65.7128 18.3366 65.5807 17.8809C65.4485 17.4206 65.3824 16.9215 65.3824 16.3838ZM67.0299 16.2402V16.3838C67.0299 16.721 67.0595 17.0355 67.1188 17.3271C67.1826 17.6188 67.2805 17.8763 67.4127 18.0996C67.5449 18.3184 67.7158 18.4915 67.9254 18.6191C68.1396 18.7422 68.3948 18.8037 68.691 18.8037C69.0647 18.8037 69.3723 18.7217 69.6139 18.5576C69.8554 18.3936 70.0445 18.1725 70.1813 17.8945C70.3225 17.612 70.4182 17.2975 70.4684 16.9512V15.7139C70.441 15.445 70.3841 15.1943 70.2975 14.9619C70.2154 14.7295 70.1038 14.5267 69.9625 14.3535C69.8212 14.1758 69.6458 14.0391 69.4361 13.9434C69.2311 13.8431 68.9872 13.793 68.7047 13.793C68.4039 13.793 68.1487 13.8568 67.9391 13.9844C67.7294 14.112 67.5563 14.2874 67.4195 14.5107C67.2874 14.734 67.1894 14.9938 67.1256 15.29C67.0618 15.5863 67.0299 15.903 67.0299 16.2402Z" fill="white"/>
</svg>
