<svg width="20" height="20" viewBox="0 0 20 20" fill="none" xmlns="http://www.w3.org/2000/svg">
<path d="M16.6445 10.8739L16.6068 11.1568L16.8311 11.3331L18.8252 12.9006L16.9198 16.1953L14.5565 15.2461L14.2903 15.1392L14.0637 15.3149C13.607 15.6691 13.1063 15.9653 12.5617 16.1869L12.2954 16.2952L12.2551 16.5799L11.8979 19.1H8.09303C8.09266 19.0991 8.09228 19.098 8.0919 19.0968L7.73516 16.5799L7.69482 16.2952L7.42851 16.1869C6.88638 15.9664 6.39434 15.6704 5.92265 15.3119L5.69688 15.1404L5.43374 15.2461L3.07041 16.1953L1.16508 12.9007L3.17721 11.3346L3.41228 11.1516L3.36331 10.8578C3.31904 10.5922 3.30011 10.291 3.30011 10C3.30011 9.72904 3.33545 9.42939 3.38331 9.14222L3.43228 8.84841L3.19721 8.66545L1.18503 7.09932L3.08043 3.80471L5.44375 4.75399L5.70593 4.85931L5.93141 4.68904C6.39522 4.33882 6.89756 4.03322 7.43851 3.81317L7.70482 3.70484L7.74516 3.42019L8.10235 0.900024H11.9079L12.2651 3.42019L12.3054 3.70484L12.5717 3.81317C13.1138 4.0337 13.6059 4.32962 14.0776 4.68811L14.3033 4.85969L14.5665 4.75399L16.9298 3.80471L18.8351 7.09935L16.823 8.66545L16.5879 8.84841L16.6369 9.14222C16.6812 9.40813 16.7001 9.69952 16.7001 10C16.7001 10.3095 16.6814 10.5974 16.6445 10.8739ZM18.8528 7.08561C18.8529 7.08552 18.853 7.08544 18.8531 7.08535L18.853 7.08545L18.8528 7.08561ZM5.90011 10C5.90011 12.2562 7.74397 14.1 10.0001 14.1C12.2563 14.1 14.1001 12.2562 14.1001 10C14.1001 7.74388 12.2563 5.90002 10.0001 5.90002C7.74397 5.90002 5.90011 7.74388 5.90011 10Z" stroke="#111111"/>
</svg>
