<svg width="200" height="49" viewBox="0 0 200 49" fill="none" xmlns="http://www.w3.org/2000/svg">
<rect width="200" height="49" rx="8" fill="white"/>
<path d="M48.955 32.21C50.455 32.21 51.715 31.655 52.45 30.905V26.12H48.685V27.56H50.86V30.14C50.485 30.485 49.81 30.68 49.135 30.68C46.855 30.68 45.64 29.075 45.64 26.45C45.64 23.87 46.99 22.28 49.06 22.28C50.11 22.28 50.785 22.715 51.34 23.27L52.285 22.145C51.61 21.455 50.56 20.765 49 20.765C46.075 20.765 43.84 22.91 43.84 26.51C43.84 30.14 46.015 32.21 48.955 32.21ZM58.1226 32.21C60.1626 32.21 62.0076 30.62 62.0076 27.89C62.0076 25.13 60.1626 23.54 58.1226 23.54C56.0676 23.54 54.2376 25.13 54.2376 27.89C54.2376 30.62 56.0676 32.21 58.1226 32.21ZM58.1226 30.785C56.8176 30.785 56.0226 29.63 56.0226 27.89C56.0226 26.135 56.8176 24.98 58.1226 24.98C59.4126 24.98 60.2376 26.135 60.2376 27.89C60.2376 29.63 59.4126 30.785 58.1226 30.785ZM67.3511 32.21C69.3911 32.21 71.2361 30.62 71.2361 27.89C71.2361 25.13 69.3911 23.54 67.3511 23.54C65.2961 23.54 63.4661 25.13 63.4661 27.89C63.4661 30.62 65.2961 32.21 67.3511 32.21ZM67.3511 30.785C66.0461 30.785 65.2511 29.63 65.2511 27.89C65.2511 26.135 66.0461 24.98 67.3511 24.98C68.6411 24.98 69.4661 26.135 69.4661 27.89C69.4661 29.63 68.6411 30.785 67.3511 30.785ZM76.0996 35.705C78.7396 35.705 80.4196 34.415 80.4196 32.825C80.4196 31.415 79.3996 30.815 77.4496 30.815H75.9196C74.8846 30.815 74.5396 30.5 74.5396 30.02C74.5396 29.615 74.7346 29.375 74.9896 29.15C75.3646 29.315 75.7846 29.39 76.1446 29.39C77.8846 29.39 79.2496 28.37 79.2496 26.555C79.2496 25.925 79.0246 25.385 78.7096 25.055H80.2696V23.75H77.3596C77.0446 23.63 76.6246 23.54 76.1446 23.54C74.4496 23.54 72.9496 24.635 72.9496 26.51C72.9496 27.485 73.4896 28.28 74.0446 28.7V28.76C73.5796 29.09 73.1296 29.645 73.1296 30.29C73.1296 30.965 73.4446 31.4 73.8796 31.67V31.745C73.1146 32.195 72.6796 32.84 72.6796 33.545C72.6796 34.97 74.1196 35.705 76.0996 35.705ZM76.1446 28.28C75.3046 28.28 74.5996 27.605 74.5996 26.51C74.5996 25.4 75.2896 24.77 76.1446 24.77C77.0146 24.77 77.7046 25.4 77.7046 26.51C77.7046 27.605 76.9996 28.28 76.1446 28.28ZM76.3546 34.565C74.9896 34.565 74.1496 34.085 74.1496 33.29C74.1496 32.87 74.3596 32.45 74.8546 32.075C75.1996 32.165 75.5596 32.195 75.9496 32.195H77.1946C78.1996 32.195 78.7396 32.42 78.7396 33.11C78.7396 33.86 77.7946 34.565 76.3546 34.565ZM83.6615 32.21C84.0965 32.21 84.3665 32.135 84.5915 32.06L84.3665 30.755C84.2165 30.785 84.1565 30.785 84.0815 30.785C83.8715 30.785 83.6765 30.62 83.6765 30.155V20.06H81.9365V30.065C81.9365 31.4 82.4015 32.21 83.6615 32.21ZM89.8543 32.21C90.9343 32.21 91.8793 31.85 92.6443 31.34L92.0443 30.23C91.4293 30.62 90.8143 30.845 90.0793 30.845C88.6543 30.845 87.6643 29.915 87.5293 28.34H92.8843C92.9293 28.13 92.9593 27.8 92.9593 27.455C92.9593 25.115 91.7743 23.54 89.5993 23.54C87.6793 23.54 85.8343 25.205 85.8343 27.89C85.8343 30.605 87.6043 32.21 89.8543 32.21ZM87.4993 27.14C87.6793 25.7 88.5943 24.905 89.6293 24.905C90.8293 24.905 91.4593 25.715 91.4593 27.14H87.4993ZM94.3004 30.35V31.64H106.72V30.35H94.3004ZM99.7004 27.56V30.875H101.26V27.56H99.7004ZM95.7554 20.495V21.755H103.675V23.585H95.7854V27.38H97.3454V24.83H105.235V20.495H95.7554ZM95.7854 26.735V28.01H105.55V26.735H95.7854ZM112.303 30.35V31.64H124.723V30.35H112.303ZM117.703 27.56V30.875H119.263V27.56H117.703ZM113.758 20.495V21.755H121.678V23.585H113.788V27.38H115.348V24.83H123.238V20.495H113.758ZM113.788 26.735V28.01H123.553V26.735H113.788ZM127.407 20.9V22.16H136.167V20.9H127.407ZM126.102 30.05V31.34H138.492V30.05H126.102ZM135.327 20.9V22.385C135.327 24.155 135.327 26.165 134.802 28.88L136.377 29.03C136.887 26.135 136.887 24.215 136.887 22.385V20.9H135.327ZM149.621 19.55V29.48H151.196V19.55H149.621ZM142.241 31.7V32.975H151.586V31.7H142.241ZM142.241 28.475V32.18H143.816V28.475H142.241ZM143.801 20.465C141.731 20.465 140.156 21.875 140.156 23.885C140.156 25.865 141.731 27.305 143.801 27.305C145.871 27.305 147.431 25.865 147.431 23.885C147.431 21.875 145.871 20.465 143.801 20.465ZM143.801 21.815C145.001 21.815 145.901 22.625 145.901 23.885C145.901 25.115 145.001 25.925 143.801 25.925C142.601 25.925 141.686 25.115 141.686 23.885C141.686 22.625 142.601 21.815 143.801 21.815ZM166.964 19.535V33.245H168.524V19.535H166.964ZM168.164 25.04V26.345H170.654V25.04H168.164ZM157.829 21.65V22.91H165.869V21.65H157.829ZM161.894 23.9C159.929 23.9 158.489 25.22 158.489 27.095C158.489 28.985 159.929 30.305 161.894 30.305C163.844 30.305 165.284 28.985 165.284 27.095C165.284 25.22 163.844 23.9 161.894 23.9ZM161.894 25.19C162.989 25.19 163.784 25.94 163.784 27.095C163.784 28.25 162.989 29.015 161.894 29.015C160.784 29.015 159.989 28.25 159.989 27.095C159.989 25.94 160.784 25.19 161.894 25.19ZM161.084 19.73V22.175H162.659V19.73H161.084ZM181.438 19.535V33.245H183.013V19.535H181.438ZM177.418 20.99V21.26C177.418 24.92 175.753 27.635 171.808 29.54L172.633 30.8C177.343 28.505 178.963 25.055 178.963 20.99H177.418ZM172.483 20.99V22.25H178.123V20.99H172.483Z" fill="#111111"/>
<path d="M31 25.6666C31 25.05 30.9489 24.6 30.8384 24.1333H23.6531V26.9166H27.8707C27.7857 27.6083 27.3265 28.65 26.3061 29.35L26.2918 29.4431L28.5637 31.1679L28.7211 31.1833C30.1666 29.875 31 27.95 31 25.6666Z" fill="#4285F4"/>
<path d="M23.653 33C25.7193 33 27.454 32.3333 28.721 31.1833L26.3061 29.35C25.6598 29.7916 24.7925 30.1 23.653 30.1C21.6292 30.1 19.9116 28.7917 19.2993 26.9833L19.2095 26.9908L16.8472 28.7825L16.8163 28.8666C18.0748 31.3166 20.6598 33 23.653 33Z" fill="#34A853"/>
<path d="M19.2993 26.9833C19.1377 26.5167 19.0442 26.0166 19.0442 25.5C19.0442 24.9833 19.1377 24.4833 19.2908 24.0167L19.2865 23.9173L16.8946 22.0968L16.8163 22.1333C16.2976 23.15 16 24.2917 16 25.5C16 26.7083 16.2976 27.85 16.8163 28.8666L19.2993 26.9833Z" fill="#FBBC05"/>
<path d="M23.653 20.9C25.0901 20.9 26.0595 21.5083 26.6122 22.0167L28.772 19.95C27.4456 18.7417 25.7193 18 23.653 18C20.6598 18 18.0748 19.6833 16.8163 22.1333L19.2908 24.0167C19.9116 22.2083 21.6292 20.9 23.653 20.9Z" fill="#EB4335"/>
</svg>
