<svg width="100" height="30" viewBox="0 0 100 30" fill="none" xmlns="http://www.w3.org/2000/svg">
<rect width="100" height="30" rx="10" fill="#111111"/>
<path d="M33.3879 10.0469H36.9084C37.6649 10.0469 38.3098 10.1608 38.843 10.3887C39.3762 10.6165 39.784 10.9538 40.0666 11.4004C40.3537 11.8424 40.4973 12.3893 40.4973 13.041C40.4973 13.5378 40.4061 13.9753 40.2238 14.3535C40.0415 14.7318 39.784 15.0508 39.4514 15.3105C39.1187 15.5658 38.7222 15.764 38.2619 15.9053L37.7424 16.1582H34.5773L34.5637 14.7979H36.9357C37.3459 14.7979 37.6877 14.7249 37.9611 14.5791C38.2346 14.4333 38.4396 14.235 38.5764 13.9844C38.7176 13.7292 38.7883 13.4421 38.7883 13.123C38.7883 12.7767 38.7199 12.4759 38.5832 12.2207C38.451 11.9609 38.246 11.7627 37.968 11.626C37.69 11.4847 37.3368 11.4141 36.9084 11.4141H35.1037V20H33.3879V10.0469ZM39.0686 20L36.7307 15.5293L38.5285 15.5225L40.9006 19.9111V20H39.0686ZM45.4029 20.1367C44.8561 20.1367 44.3616 20.0479 43.9195 19.8701C43.482 19.6878 43.1083 19.4349 42.7984 19.1113C42.4931 18.7878 42.2584 18.4072 42.0943 17.9697C41.9303 17.5322 41.8482 17.0605 41.8482 16.5547V16.2812C41.8482 15.7025 41.9326 15.1784 42.1012 14.709C42.2698 14.2396 42.5045 13.8385 42.8053 13.5059C43.1061 13.1686 43.4615 12.9111 43.8717 12.7334C44.2818 12.5557 44.7262 12.4668 45.2047 12.4668C45.7333 12.4668 46.1959 12.5557 46.5924 12.7334C46.9889 12.9111 47.317 13.1618 47.5768 13.4854C47.8411 13.8044 48.037 14.1849 48.1646 14.627C48.2968 15.069 48.3629 15.5566 48.3629 16.0898V16.7939H42.648V15.6113H46.7359V15.4814C46.7268 15.1852 46.6676 14.9072 46.5582 14.6475C46.4534 14.3877 46.2916 14.1781 46.0729 14.0186C45.8541 13.859 45.5624 13.7793 45.1979 13.7793C44.9244 13.7793 44.6806 13.8385 44.4664 13.957C44.2568 14.071 44.0813 14.2373 43.94 14.4561C43.7988 14.6748 43.6894 14.9391 43.6119 15.249C43.539 15.5544 43.5025 15.8984 43.5025 16.2812V16.5547C43.5025 16.8783 43.5458 17.179 43.6324 17.457C43.7236 17.7305 43.8557 17.9697 44.0289 18.1748C44.2021 18.3799 44.4117 18.5417 44.6578 18.6602C44.9039 18.7741 45.1842 18.8311 45.4986 18.8311C45.8951 18.8311 46.2483 18.7513 46.5582 18.5918C46.8681 18.4323 47.137 18.2067 47.3648 17.915L48.233 18.7559C48.0735 18.9883 47.8661 19.2116 47.6109 19.4258C47.3557 19.6354 47.0436 19.8063 46.6744 19.9385C46.3098 20.0706 45.886 20.1367 45.4029 20.1367ZM53.918 18.5166V14.9893C53.918 14.7249 53.8701 14.4971 53.7744 14.3057C53.6787 14.1143 53.5329 13.9661 53.3369 13.8613C53.1455 13.7565 52.904 13.7041 52.6123 13.7041C52.3434 13.7041 52.111 13.7497 51.915 13.8408C51.7191 13.932 51.5664 14.055 51.457 14.21C51.3477 14.3649 51.293 14.5404 51.293 14.7363H49.6523C49.6523 14.4447 49.723 14.1621 49.8643 13.8887C50.0055 13.6152 50.2106 13.3714 50.4795 13.1572C50.7484 12.943 51.0697 12.7744 51.4434 12.6514C51.8171 12.5283 52.2363 12.4668 52.7012 12.4668C53.2572 12.4668 53.7493 12.5602 54.1777 12.7471C54.6107 12.9339 54.9502 13.2165 55.1963 13.5947C55.4469 13.9684 55.5723 14.4378 55.5723 15.0029V18.291C55.5723 18.6283 55.5951 18.9313 55.6406 19.2002C55.6908 19.4645 55.7614 19.6947 55.8525 19.8906V20H54.1641C54.0866 19.8223 54.0251 19.5967 53.9795 19.3232C53.9385 19.0452 53.918 18.7764 53.918 18.5166ZM54.1572 15.502L54.1709 16.5205H52.9883C52.6829 16.5205 52.4141 16.5501 52.1816 16.6094C51.9492 16.6641 51.7555 16.7461 51.6006 16.8555C51.4456 16.9648 51.3294 17.097 51.252 17.252C51.1745 17.4069 51.1357 17.5824 51.1357 17.7783C51.1357 17.9743 51.1813 18.1543 51.2725 18.3184C51.3636 18.4779 51.4958 18.6032 51.6689 18.6943C51.8467 18.7855 52.0609 18.8311 52.3115 18.8311C52.6488 18.8311 52.9427 18.7627 53.1934 18.626C53.4486 18.4847 53.6491 18.3138 53.7949 18.1133C53.9408 17.9082 54.0182 17.7145 54.0273 17.5322L54.5605 18.2637C54.5059 18.4505 54.4124 18.651 54.2803 18.8652C54.1481 19.0794 53.9749 19.2845 53.7607 19.4805C53.5511 19.6719 53.2982 19.8291 53.002 19.9521C52.7103 20.0752 52.373 20.1367 51.9902 20.1367C51.5072 20.1367 51.0765 20.041 50.6982 19.8496C50.32 19.6536 50.0238 19.3916 49.8096 19.0635C49.5954 18.7308 49.4883 18.3548 49.4883 17.9355C49.4883 17.5436 49.5612 17.1973 49.707 16.8965C49.8574 16.5911 50.0762 16.3359 50.3633 16.1309C50.6549 15.9258 51.0104 15.7708 51.4297 15.666C51.849 15.5566 52.3275 15.502 52.8652 15.502H54.1572ZM60.4164 18.8242C60.6853 18.8242 60.9268 18.7718 61.141 18.667C61.3598 18.5576 61.5352 18.4072 61.6674 18.2158C61.8041 18.0244 61.8793 17.8034 61.893 17.5527H63.4447C63.4356 18.0312 63.2943 18.4665 63.0209 18.8584C62.7475 19.2503 62.3852 19.5625 61.934 19.7949C61.4828 20.0228 60.9838 20.1367 60.4369 20.1367C59.8718 20.1367 59.3796 20.041 58.9604 19.8496C58.5411 19.6536 58.1924 19.3848 57.9145 19.043C57.6365 18.7012 57.4268 18.307 57.2855 17.8604C57.1488 17.4137 57.0805 16.9352 57.0805 16.4248V16.1855C57.0805 15.6751 57.1488 15.1966 57.2855 14.75C57.4268 14.2988 57.6365 13.9023 57.9145 13.5605C58.1924 13.2188 58.5411 12.9521 58.9604 12.7607C59.3796 12.5648 59.8695 12.4668 60.4301 12.4668C61.0225 12.4668 61.5421 12.5853 61.9887 12.8223C62.4353 13.0547 62.7862 13.3805 63.0414 13.7998C63.3012 14.2145 63.4356 14.6976 63.4447 15.249H61.893C61.8793 14.9756 61.8109 14.7295 61.6879 14.5107C61.5694 14.2874 61.4008 14.1097 61.182 13.9775C60.9678 13.8454 60.7104 13.7793 60.4096 13.7793C60.0769 13.7793 59.8012 13.8477 59.5824 13.9844C59.3637 14.1165 59.1928 14.2988 59.0697 14.5312C58.9467 14.7591 58.8578 15.0166 58.8031 15.3037C58.753 15.5863 58.7279 15.8802 58.7279 16.1855V16.4248C58.7279 16.7301 58.753 17.0264 58.8031 17.3135C58.8533 17.6006 58.9398 17.8581 59.0629 18.0859C59.1905 18.3092 59.3637 18.4893 59.5824 18.626C59.8012 18.7581 60.0792 18.8242 60.4164 18.8242ZM68.2 12.6035V13.8066H64.0301V12.6035H68.2ZM65.2332 10.792H66.8807V17.9561C66.8807 18.1839 66.9126 18.3594 66.9764 18.4824C67.0447 18.6009 67.1381 18.6807 67.2566 18.7217C67.3751 18.7627 67.5141 18.7832 67.6736 18.7832C67.7876 18.7832 67.8969 18.7764 68.0018 18.7627C68.1066 18.749 68.1909 18.7354 68.2547 18.7217L68.2615 19.9795C68.1248 20.0205 67.9653 20.057 67.783 20.0889C67.6053 20.1208 67.4002 20.1367 67.1678 20.1367C66.7895 20.1367 66.4546 20.0706 66.1629 19.9385C65.8712 19.8018 65.6434 19.5807 65.4793 19.2754C65.3152 18.9701 65.2332 18.5645 65.2332 18.0586V10.792Z" fill="white"/>
</svg>
