<svg width="100" height="30" viewBox="0 0 100 30" fill="none" xmlns="http://www.w3.org/2000/svg">
<rect width="100" height="30" rx="10" fill="#111111"/>
<path d="M30.0865 11.373L27.1129 20H25.315L29.0611 10.0469H30.2096L30.0865 11.373ZM32.5748 20L29.5943 11.373L29.4645 10.0469H30.6197L34.3795 20H32.5748ZM32.4312 16.3086V17.6689H27.0172V16.3086H32.4312ZM38.6973 12.6035V13.8066H34.5273V12.6035H38.6973ZM35.7305 10.792H37.3779V17.9561C37.3779 18.1839 37.4098 18.3594 37.4736 18.4824C37.542 18.6009 37.6354 18.6807 37.7539 18.7217C37.8724 18.7627 38.0114 18.7832 38.1709 18.7832C38.2848 18.7832 38.3942 18.7764 38.499 18.7627C38.6038 18.749 38.6882 18.7354 38.752 18.7217L38.7588 19.9795C38.6221 20.0205 38.4626 20.057 38.2803 20.0889C38.1025 20.1208 37.8975 20.1367 37.665 20.1367C37.2868 20.1367 36.9518 20.0706 36.6602 19.9385C36.3685 19.8018 36.1406 19.5807 35.9766 19.2754C35.8125 18.9701 35.7305 18.5645 35.7305 18.0586V10.792ZM43.4594 12.6035V13.8066H39.2895V12.6035H43.4594ZM40.4926 10.792H42.14V17.9561C42.14 18.1839 42.1719 18.3594 42.2357 18.4824C42.3041 18.6009 42.3975 18.6807 42.516 18.7217C42.6345 18.7627 42.7735 18.7832 42.933 18.7832C43.0469 18.7832 43.1563 18.7764 43.2611 18.7627C43.3659 18.749 43.4503 18.7354 43.5141 18.7217L43.5209 19.9795C43.3842 20.0205 43.2247 20.057 43.0424 20.0889C42.8646 20.1208 42.6596 20.1367 42.4271 20.1367C42.0489 20.1367 41.7139 20.0706 41.4223 19.9385C41.1306 19.8018 40.9027 19.5807 40.7387 19.2754C40.5746 18.9701 40.4926 18.5645 40.4926 18.0586V10.792ZM46.5945 12.6035V20H44.9402V12.6035H46.5945ZM44.8309 10.6621C44.8309 10.4115 44.9129 10.2041 45.077 10.04C45.2456 9.87142 45.478 9.78711 45.7742 9.78711C46.0659 9.78711 46.296 9.87142 46.4646 10.04C46.6333 10.2041 46.7176 10.4115 46.7176 10.6621C46.7176 10.9082 46.6333 11.1133 46.4646 11.2773C46.296 11.4414 46.0659 11.5234 45.7742 11.5234C45.478 11.5234 45.2456 11.4414 45.077 11.2773C44.9129 11.1133 44.8309 10.9082 44.8309 10.6621ZM51.8898 12.6035V13.8066H47.7199V12.6035H51.8898ZM48.923 10.792H50.5705V17.9561C50.5705 18.1839 50.6024 18.3594 50.6662 18.4824C50.7346 18.6009 50.828 18.6807 50.9465 18.7217C51.065 18.7627 51.204 18.7832 51.3635 18.7832C51.4774 18.7832 51.5868 18.7764 51.6916 18.7627C51.7964 18.749 51.8807 18.7354 51.9445 18.7217L51.9514 19.9795C51.8146 20.0205 51.6551 20.057 51.4729 20.0889C51.2951 20.1208 51.09 20.1367 50.8576 20.1367C50.4794 20.1367 50.1444 20.0706 49.8527 19.9385C49.5611 19.8018 49.3332 19.5807 49.1691 19.2754C49.0051 18.9701 48.923 18.5645 48.923 18.0586V10.792ZM57.7115 18.2568V12.6035H59.3658V20H57.8072L57.7115 18.2568ZM57.9439 16.7188L58.4977 16.7051C58.4977 17.2018 58.443 17.6598 58.3336 18.0791C58.2242 18.4938 58.0556 18.8561 57.8277 19.166C57.5999 19.4714 57.3082 19.7106 56.9527 19.8838C56.5973 20.0524 56.1712 20.1367 55.6744 20.1367C55.3144 20.1367 54.984 20.0843 54.6832 19.9795C54.3824 19.8747 54.1227 19.7129 53.9039 19.4941C53.6897 19.2754 53.5234 18.9906 53.4049 18.6396C53.2864 18.2887 53.2271 17.8695 53.2271 17.3818V12.6035H54.8746V17.3955C54.8746 17.6644 54.9065 17.89 54.9703 18.0723C55.0341 18.25 55.1207 18.3936 55.2301 18.5029C55.3395 18.6123 55.4671 18.6898 55.6129 18.7354C55.7587 18.7809 55.9137 18.8037 56.0777 18.8037C56.5471 18.8037 56.9163 18.7126 57.1852 18.5303C57.4586 18.3434 57.6523 18.0928 57.7662 17.7783C57.8847 17.4639 57.9439 17.1107 57.9439 16.7188ZM65.666 18.4688V9.5H67.3203V20H65.8232L65.666 18.4688ZM60.8535 16.3838V16.2402C60.8535 15.6797 60.9196 15.1693 61.0518 14.709C61.1839 14.2441 61.3753 13.8454 61.626 13.5127C61.8766 13.1755 62.182 12.918 62.542 12.7402C62.902 12.5579 63.3076 12.4668 63.7588 12.4668C64.2054 12.4668 64.5973 12.5534 64.9346 12.7266C65.2718 12.8997 65.5589 13.1481 65.7959 13.4717C66.0329 13.7907 66.222 14.1735 66.3633 14.6201C66.5046 15.0622 66.6048 15.5544 66.6641 16.0967V16.5547C66.6048 17.0833 66.5046 17.5664 66.3633 18.0039C66.222 18.4414 66.0329 18.8197 65.7959 19.1387C65.5589 19.4577 65.2695 19.7038 64.9277 19.877C64.5905 20.0501 64.1963 20.1367 63.7451 20.1367C63.2985 20.1367 62.8952 20.0433 62.5352 19.8564C62.1797 19.6696 61.8766 19.4076 61.626 19.0703C61.3753 18.7331 61.1839 18.3366 61.0518 17.8809C60.9196 17.4206 60.8535 16.9215 60.8535 16.3838ZM62.501 16.2402V16.3838C62.501 16.721 62.5306 17.0355 62.5898 17.3271C62.6536 17.6188 62.7516 17.8763 62.8838 18.0996C63.016 18.3184 63.1868 18.4915 63.3965 18.6191C63.6107 18.7422 63.8659 18.8037 64.1621 18.8037C64.5358 18.8037 64.8434 18.7217 65.085 18.5576C65.3265 18.3936 65.5156 18.1725 65.6523 17.8945C65.7936 17.612 65.8893 17.2975 65.9395 16.9512V15.7139C65.9121 15.445 65.8551 15.1943 65.7686 14.9619C65.6865 14.7295 65.5749 14.5267 65.4336 14.3535C65.2923 14.1758 65.1169 14.0391 64.9072 13.9434C64.7021 13.8431 64.4583 13.793 64.1758 13.793C63.875 13.793 63.6198 13.8568 63.4102 13.9844C63.2005 14.112 63.0273 14.2874 62.8906 14.5107C62.7585 14.734 62.6605 14.9938 62.5967 15.29C62.5329 15.5863 62.501 15.903 62.501 16.2402ZM72.4037 20.1367C71.8568 20.1367 71.3624 20.0479 70.9203 19.8701C70.4828 19.6878 70.1091 19.4349 69.7992 19.1113C69.4939 18.7878 69.2592 18.4072 69.0951 17.9697C68.9311 17.5322 68.849 17.0605 68.849 16.5547V16.2812C68.849 15.7025 68.9333 15.1784 69.102 14.709C69.2706 14.2396 69.5053 13.8385 69.8061 13.5059C70.1068 13.1686 70.4623 12.9111 70.8725 12.7334C71.2826 12.5557 71.727 12.4668 72.2055 12.4668C72.7341 12.4668 73.1967 12.5557 73.5932 12.7334C73.9896 12.9111 74.3178 13.1618 74.5775 13.4854C74.8419 13.8044 75.0378 14.1849 75.1654 14.627C75.2976 15.069 75.3637 15.5566 75.3637 16.0898V16.7939H69.6488V15.6113H73.7367V15.4814C73.7276 15.1852 73.6684 14.9072 73.559 14.6475C73.4542 14.3877 73.2924 14.1781 73.0736 14.0186C72.8549 13.859 72.5632 13.7793 72.1986 13.7793C71.9252 13.7793 71.6814 13.8385 71.4672 13.957C71.2576 14.071 71.0821 14.2373 70.9408 14.4561C70.7995 14.6748 70.6902 14.9391 70.6127 15.249C70.5398 15.5544 70.5033 15.8984 70.5033 16.2812V16.5547C70.5033 16.8783 70.5466 17.179 70.6332 17.457C70.7243 17.7305 70.8565 17.9697 71.0297 18.1748C71.2029 18.3799 71.4125 18.5417 71.6586 18.6602C71.9047 18.7741 72.185 18.8311 72.4994 18.8311C72.8959 18.8311 73.2491 18.7513 73.559 18.5918C73.8689 18.4323 74.1378 18.2067 74.3656 17.915L75.2338 18.7559C75.0743 18.9883 74.8669 19.2116 74.6117 19.4258C74.3565 19.6354 74.0443 19.8063 73.6752 19.9385C73.3106 20.0706 72.8868 20.1367 72.4037 20.1367Z" fill="white"/>
</svg>
