<svg width="100" height="30" viewBox="0 0 100 30" fill="none" xmlns="http://www.w3.org/2000/svg">
<rect width="100" height="30" rx="10" fill="#111111"/>
<path d="M42.7506 18.1816L45.3687 10.0469H47.2623L43.6939 20H42.4156L42.7506 18.1816ZM40.3307 10.0469L42.9283 18.1816L43.2838 20H41.9986L38.4439 10.0469H40.3307ZM52.5713 18.2568V12.6035H54.2256V20H52.667L52.5713 18.2568ZM52.8037 16.7188L53.3574 16.7051C53.3574 17.2018 53.3027 17.6598 53.1934 18.0791C53.084 18.4938 52.9154 18.8561 52.6875 19.166C52.4596 19.4714 52.168 19.7106 51.8125 19.8838C51.457 20.0524 51.0309 20.1367 50.5342 20.1367C50.1742 20.1367 49.8438 20.0843 49.543 19.9795C49.2422 19.8747 48.9824 19.7129 48.7637 19.4941C48.5495 19.2754 48.3831 18.9906 48.2646 18.6396C48.1462 18.2887 48.0869 17.8695 48.0869 17.3818V12.6035H49.7344V17.3955C49.7344 17.6644 49.7663 17.89 49.8301 18.0723C49.8939 18.25 49.9805 18.3936 50.0898 18.5029C50.1992 18.6123 50.3268 18.6898 50.4727 18.7354C50.6185 18.7809 50.7734 18.8037 50.9375 18.8037C51.4069 18.8037 51.776 18.7126 52.0449 18.5303C52.3184 18.3434 52.512 18.0928 52.626 17.7783C52.7445 17.4639 52.8037 17.1107 52.8037 16.7188ZM59.2748 20.1367C58.7279 20.1367 58.2335 20.0479 57.7914 19.8701C57.3539 19.6878 56.9802 19.4349 56.6703 19.1113C56.365 18.7878 56.1303 18.4072 55.9662 17.9697C55.8021 17.5322 55.7201 17.0605 55.7201 16.5547V16.2812C55.7201 15.7025 55.8044 15.1784 55.973 14.709C56.1417 14.2396 56.3764 13.8385 56.6771 13.5059C56.9779 13.1686 57.3334 12.9111 57.7436 12.7334C58.1537 12.5557 58.598 12.4668 59.0766 12.4668C59.6052 12.4668 60.0678 12.5557 60.4643 12.7334C60.8607 12.9111 61.1889 13.1618 61.4486 13.4854C61.713 13.8044 61.9089 14.1849 62.0365 14.627C62.1687 15.069 62.2348 15.5566 62.2348 16.0898V16.7939H56.5199V15.6113H60.6078V15.4814C60.5987 15.1852 60.5395 14.9072 60.4301 14.6475C60.3253 14.3877 60.1635 14.1781 59.9447 14.0186C59.726 13.859 59.4343 13.7793 59.0697 13.7793C58.7963 13.7793 58.5525 13.8385 58.3383 13.957C58.1286 14.071 57.9532 14.2373 57.8119 14.4561C57.6706 14.6748 57.5613 14.9391 57.4838 15.249C57.4109 15.5544 57.3744 15.8984 57.3744 16.2812V16.5547C57.3744 16.8783 57.4177 17.179 57.5043 17.457C57.5954 17.7305 57.7276 17.9697 57.9008 18.1748C58.074 18.3799 58.2836 18.5417 58.5297 18.6602C58.7758 18.7741 59.0561 18.8311 59.3705 18.8311C59.767 18.8311 60.1202 18.7513 60.4301 18.5918C60.74 18.4323 61.0089 18.2067 61.2367 17.915L62.1049 18.7559C61.9454 18.9883 61.738 19.2116 61.4828 19.4258C61.2276 19.6354 60.9154 19.8063 60.5463 19.9385C60.1817 20.0706 59.7579 20.1367 59.2748 20.1367Z" fill="white"/>
</svg>
