<svg width="100" height="30" viewBox="0 0 100 30" fill="none" xmlns="http://www.w3.org/2000/svg">
<rect width="100" height="30" rx="10" fill="#111111"/>
<path d="M35.6953 17.4365C35.6953 17.2314 35.6634 17.0492 35.5996 16.8896C35.5404 16.7301 35.4333 16.5843 35.2783 16.4521C35.1234 16.32 34.9046 16.1924 34.6221 16.0693C34.3441 15.9417 33.9886 15.8118 33.5557 15.6797C33.0817 15.5339 32.6442 15.3721 32.2432 15.1943C31.8467 15.012 31.5003 14.8024 31.2041 14.5654C30.9079 14.3239 30.6777 14.0482 30.5137 13.7383C30.3496 13.4238 30.2676 13.0615 30.2676 12.6514C30.2676 12.2458 30.3519 11.8766 30.5205 11.5439C30.6937 11.2113 30.9375 10.9242 31.252 10.6826C31.571 10.4365 31.9469 10.2474 32.3799 10.1152C32.8128 9.97852 33.2913 9.91016 33.8154 9.91016C34.5537 9.91016 35.1895 10.0469 35.7227 10.3203C36.2604 10.5938 36.6729 10.9606 36.96 11.4209C37.2516 11.8812 37.3975 12.3893 37.3975 12.9453H35.6953C35.6953 12.6172 35.6247 12.3278 35.4834 12.0771C35.3467 11.8219 35.137 11.6214 34.8545 11.4756C34.5765 11.3298 34.2233 11.2568 33.7949 11.2568C33.3893 11.2568 33.0521 11.3184 32.7832 11.4414C32.5143 11.5645 32.3138 11.7308 32.1816 11.9404C32.0495 12.1501 31.9834 12.387 31.9834 12.6514C31.9834 12.8382 32.0267 13.0091 32.1133 13.1641C32.1999 13.3145 32.332 13.4557 32.5098 13.5879C32.6875 13.7155 32.9108 13.8363 33.1797 13.9502C33.4486 14.0641 33.7653 14.1735 34.1299 14.2783C34.6813 14.4424 35.1621 14.6247 35.5723 14.8252C35.9824 15.0212 36.3242 15.2445 36.5977 15.4951C36.8711 15.7458 37.0762 16.0306 37.2129 16.3496C37.3496 16.6641 37.418 17.0218 37.418 17.4229C37.418 17.8421 37.3337 18.2204 37.165 18.5576C36.9964 18.8903 36.7549 19.1751 36.4404 19.4121C36.1305 19.6445 35.7568 19.8245 35.3193 19.9521C34.8864 20.0752 34.4033 20.1367 33.8701 20.1367C33.3916 20.1367 32.9199 20.0729 32.4551 19.9453C31.9948 19.8177 31.5755 19.624 31.1973 19.3643C30.819 19.0999 30.5182 18.7718 30.2949 18.3799C30.0716 17.9834 29.96 17.5208 29.96 16.9922H31.6758C31.6758 17.3158 31.7305 17.5915 31.8398 17.8193C31.9538 18.0472 32.111 18.234 32.3115 18.3799C32.512 18.5212 32.7445 18.626 33.0088 18.6943C33.2777 18.7627 33.5648 18.7969 33.8701 18.7969C34.2712 18.7969 34.6061 18.7399 34.875 18.626C35.1484 18.512 35.3535 18.3525 35.4902 18.1475C35.627 17.9424 35.6953 17.7054 35.6953 17.4365ZM40.5258 14.0254V22.8438H38.8783V12.6035H40.3959L40.5258 14.0254ZM45.3451 16.2334V16.377C45.3451 16.9147 45.2813 17.4137 45.1537 17.874C45.0307 18.3298 44.8461 18.7285 44.6 19.0703C44.3585 19.4076 44.06 19.6696 43.7045 19.8564C43.349 20.0433 42.9389 20.1367 42.474 20.1367C42.0137 20.1367 41.6104 20.0524 41.2641 19.8838C40.9223 19.7106 40.6329 19.4668 40.3959 19.1523C40.1589 18.8379 39.9675 18.4688 39.8217 18.0449C39.6804 17.6165 39.5801 17.1471 39.5209 16.6367V16.083C39.5801 15.5407 39.6804 15.0485 39.8217 14.6064C39.9675 14.1644 40.1589 13.7839 40.3959 13.4648C40.6329 13.1458 40.9223 12.8997 41.2641 12.7266C41.6059 12.5534 42.0046 12.4668 42.4604 12.4668C42.9252 12.4668 43.3376 12.5579 43.6977 12.7402C44.0577 12.918 44.3607 13.1732 44.6068 13.5059C44.8529 13.834 45.0375 14.2305 45.1605 14.6953C45.2836 15.1556 45.3451 15.6683 45.3451 16.2334ZM43.6977 16.377V16.2334C43.6977 15.8916 43.6658 15.5749 43.602 15.2832C43.5382 14.987 43.4379 14.7272 43.3012 14.5039C43.1645 14.2806 42.989 14.1074 42.7748 13.9844C42.5652 13.8568 42.3122 13.793 42.016 13.793C41.7243 13.793 41.4737 13.8431 41.2641 13.9434C41.0544 14.0391 40.879 14.1735 40.7377 14.3467C40.5964 14.5199 40.487 14.7227 40.4096 14.9551C40.3321 15.1829 40.2774 15.4313 40.2455 15.7002V17.0264C40.3002 17.3545 40.3936 17.6553 40.5258 17.9287C40.6579 18.2021 40.8448 18.4209 41.0863 18.585C41.3324 18.7445 41.6469 18.8242 42.0297 18.8242C42.3259 18.8242 42.5788 18.7604 42.7885 18.6328C42.9981 18.5052 43.169 18.3298 43.3012 18.1064C43.4379 17.8786 43.5382 17.6165 43.602 17.3203C43.6658 17.0241 43.6977 16.7096 43.6977 16.377ZM48.5008 14.0117V20H46.8533V12.6035H48.4256L48.5008 14.0117ZM50.7635 12.5557L50.7498 14.0869C50.6495 14.0687 50.5402 14.055 50.4217 14.0459C50.3077 14.0368 50.1938 14.0322 50.0799 14.0322C49.7973 14.0322 49.549 14.0732 49.3348 14.1553C49.1206 14.2327 48.9406 14.3467 48.7947 14.4971C48.6535 14.6429 48.5441 14.8206 48.4666 15.0303C48.3891 15.2399 48.3436 15.4746 48.3299 15.7344L47.9539 15.7617C47.9539 15.2969 47.9995 14.8662 48.0906 14.4697C48.1818 14.0732 48.3185 13.7246 48.5008 13.4238C48.6876 13.123 48.9201 12.8883 49.198 12.7197C49.4806 12.5511 49.8064 12.4668 50.1756 12.4668C50.2758 12.4668 50.3829 12.4759 50.4969 12.4941C50.6154 12.5124 50.7042 12.5329 50.7635 12.5557ZM53.6594 12.6035V20H52.0051V12.6035H53.6594ZM51.8957 10.6621C51.8957 10.4115 51.9777 10.2041 52.1418 10.04C52.3104 9.87142 52.5428 9.78711 52.8391 9.78711C53.1307 9.78711 53.3609 9.87142 53.5295 10.04C53.6981 10.2041 53.7824 10.4115 53.7824 10.6621C53.7824 10.9082 53.6981 11.1133 53.5295 11.2773C53.3609 11.4414 53.1307 11.5234 52.8391 11.5234C52.5428 11.5234 52.3104 11.4414 52.1418 11.2773C51.9777 11.1133 51.8957 10.9082 51.8957 10.6621ZM57.1979 14.1826V20H55.5504V12.6035H57.1021L57.1979 14.1826ZM56.9039 16.0283L56.3707 16.0215C56.3753 15.4974 56.4482 15.0166 56.5895 14.5791C56.7353 14.1416 56.9358 13.7656 57.191 13.4512C57.4508 13.1367 57.7607 12.8952 58.1207 12.7266C58.4807 12.5534 58.8818 12.4668 59.3238 12.4668C59.6793 12.4668 60.0006 12.5169 60.2877 12.6172C60.5794 12.7129 60.8277 12.8701 61.0328 13.0889C61.2424 13.3076 61.402 13.5924 61.5113 13.9434C61.6207 14.2897 61.6754 14.7158 61.6754 15.2217V20H60.0211V15.2148C60.0211 14.8594 59.9687 14.5791 59.8639 14.374C59.7636 14.1644 59.6155 14.0163 59.4195 13.9297C59.2281 13.8385 58.9889 13.793 58.7018 13.793C58.4192 13.793 58.1663 13.8522 57.943 13.9707C57.7197 14.0892 57.5305 14.251 57.3756 14.4561C57.2252 14.6611 57.109 14.8981 57.027 15.167C56.9449 15.4359 56.9039 15.723 56.9039 16.0283ZM68.1943 12.6035H69.6914V19.7949C69.6914 20.4603 69.5501 21.0254 69.2676 21.4902C68.985 21.9551 68.5908 22.3083 68.085 22.5498C67.5791 22.7959 66.9935 22.9189 66.3281 22.9189C66.0456 22.9189 65.7311 22.8779 65.3848 22.7959C65.043 22.7139 64.7103 22.5817 64.3867 22.3994C64.0677 22.2217 63.8011 21.987 63.5869 21.6953L64.3594 20.7246C64.6237 21.0391 64.9154 21.2692 65.2344 21.415C65.5534 21.5609 65.8883 21.6338 66.2393 21.6338C66.6175 21.6338 66.9388 21.5632 67.2031 21.4219C67.472 21.2852 67.6794 21.0824 67.8252 20.8135C67.971 20.5446 68.0439 20.2165 68.0439 19.8291V14.2783L68.1943 12.6035ZM63.1699 16.3838V16.2402C63.1699 15.6797 63.2383 15.1693 63.375 14.709C63.5117 14.2441 63.7077 13.8454 63.9629 13.5127C64.2181 13.1755 64.528 12.918 64.8926 12.7402C65.2572 12.5579 65.6696 12.4668 66.1299 12.4668C66.6084 12.4668 67.0163 12.5534 67.3535 12.7266C67.6953 12.8997 67.9801 13.1481 68.208 13.4717C68.4359 13.7907 68.6136 14.1735 68.7412 14.6201C68.8734 15.0622 68.9714 15.5544 69.0352 16.0967V16.5547C68.9759 17.0833 68.8757 17.5664 68.7344 18.0039C68.5931 18.4414 68.4062 18.8197 68.1738 19.1387C67.9414 19.4577 67.6543 19.7038 67.3125 19.877C66.9753 20.0501 66.5765 20.1367 66.1162 20.1367C65.665 20.1367 65.2572 20.0433 64.8926 19.8564C64.5326 19.6696 64.2227 19.4076 63.9629 19.0703C63.7077 18.7331 63.5117 18.3366 63.375 17.8809C63.2383 17.4206 63.1699 16.9215 63.1699 16.3838ZM64.8174 16.2402V16.3838C64.8174 16.721 64.8493 17.0355 64.9131 17.3271C64.9814 17.6188 65.084 17.8763 65.2207 18.0996C65.362 18.3184 65.5397 18.4915 65.7539 18.6191C65.9727 18.7422 66.2301 18.8037 66.5264 18.8037C66.9137 18.8037 67.2305 18.7217 67.4766 18.5576C67.7272 18.3936 67.9186 18.1725 68.0508 17.8945C68.1875 17.612 68.2832 17.2975 68.3379 16.9512V15.7139C68.3105 15.445 68.2536 15.1943 68.167 14.9619C68.085 14.7295 67.9733 14.5267 67.832 14.3535C67.6908 14.1758 67.513 14.0391 67.2988 13.9434C67.0846 13.8431 66.8317 13.793 66.54 13.793C66.2438 13.793 65.9863 13.8568 65.7676 13.9844C65.5488 14.112 65.3688 14.2874 65.2275 14.5107C65.0908 14.734 64.9883 14.9938 64.9199 15.29C64.8516 15.5863 64.8174 15.903 64.8174 16.2402Z" fill="white"/>
</svg>
