<svg width="100" height="30" viewBox="0 0 100 30" fill="none" xmlns="http://www.w3.org/2000/svg">
<rect width="100" height="30" rx="10" fill="#111111"/>
<path d="M35.1609 10.0469V20H33.4451L28.9813 12.8701V20H27.2654V10.0469H28.9813L33.4588 17.1904V10.0469H35.1609ZM36.8264 16.3838V16.2266C36.8264 15.6934 36.9038 15.1989 37.0588 14.7432C37.2137 14.2829 37.437 13.8841 37.7287 13.5469C38.0249 13.2051 38.385 12.9408 38.8088 12.7539C39.2372 12.5625 39.7202 12.4668 40.258 12.4668C40.8003 12.4668 41.2834 12.5625 41.7072 12.7539C42.1356 12.9408 42.4979 13.2051 42.7941 13.5469C43.0904 13.8841 43.316 14.2829 43.4709 14.7432C43.6258 15.1989 43.7033 15.6934 43.7033 16.2266V16.3838C43.7033 16.917 43.6258 17.4115 43.4709 17.8672C43.316 18.3229 43.0904 18.7217 42.7941 19.0635C42.4979 19.4007 42.1379 19.665 41.7141 19.8564C41.2902 20.0433 40.8094 20.1367 40.2717 20.1367C39.7294 20.1367 39.244 20.0433 38.8156 19.8564C38.3918 19.665 38.0318 19.4007 37.7355 19.0635C37.4393 18.7217 37.2137 18.3229 37.0588 17.8672C36.9038 17.4115 36.8264 16.917 36.8264 16.3838ZM38.4738 16.2266V16.3838C38.4738 16.7165 38.508 17.0309 38.5764 17.3271C38.6447 17.6234 38.7518 17.8831 38.8977 18.1064C39.0435 18.3298 39.2303 18.5052 39.4582 18.6328C39.6861 18.7604 39.9572 18.8242 40.2717 18.8242C40.577 18.8242 40.8413 18.7604 41.0646 18.6328C41.2925 18.5052 41.4794 18.3298 41.6252 18.1064C41.771 17.8831 41.8781 17.6234 41.9465 17.3271C42.0194 17.0309 42.0559 16.7165 42.0559 16.3838V16.2266C42.0559 15.8984 42.0194 15.5885 41.9465 15.2969C41.8781 15.0007 41.7688 14.7386 41.6184 14.5107C41.4725 14.2829 41.2857 14.1051 41.0578 13.9775C40.8345 13.8454 40.5679 13.7793 40.258 13.7793C39.9481 13.7793 39.6792 13.8454 39.4514 13.9775C39.2281 14.1051 39.0435 14.2829 38.8977 14.5107C38.7518 14.7386 38.6447 15.0007 38.5764 15.2969C38.508 15.5885 38.4738 15.8984 38.4738 16.2266ZM49.6959 18.4688V9.5H51.3502V20H49.8531L49.6959 18.4688ZM44.8834 16.3838V16.2402C44.8834 15.6797 44.9495 15.1693 45.0816 14.709C45.2138 14.2441 45.4052 13.8454 45.6559 13.5127C45.9065 13.1755 46.2119 12.918 46.5719 12.7402C46.9319 12.5579 47.3375 12.4668 47.7887 12.4668C48.2353 12.4668 48.6272 12.5534 48.9645 12.7266C49.3017 12.8997 49.5888 13.1481 49.8258 13.4717C50.0628 13.7907 50.2519 14.1735 50.3932 14.6201C50.5344 15.0622 50.6347 15.5544 50.6939 16.0967V16.5547C50.6347 17.0833 50.5344 17.5664 50.3932 18.0039C50.2519 18.4414 50.0628 18.8197 49.8258 19.1387C49.5888 19.4577 49.2994 19.7038 48.9576 19.877C48.6204 20.0501 48.2262 20.1367 47.775 20.1367C47.3284 20.1367 46.9251 20.0433 46.565 19.8564C46.2096 19.6696 45.9065 19.4076 45.6559 19.0703C45.4052 18.7331 45.2138 18.3366 45.0816 17.8809C44.9495 17.4206 44.8834 16.9215 44.8834 16.3838ZM46.5309 16.2402V16.3838C46.5309 16.721 46.5605 17.0355 46.6197 17.3271C46.6835 17.6188 46.7815 17.8763 46.9137 18.0996C47.0458 18.3184 47.2167 18.4915 47.4264 18.6191C47.6406 18.7422 47.8958 18.8037 48.192 18.8037C48.5657 18.8037 48.8733 18.7217 49.1148 18.5576C49.3564 18.3936 49.5455 18.1725 49.6822 17.8945C49.8235 17.612 49.9192 17.2975 49.9693 16.9512V15.7139C49.942 15.445 49.885 15.1943 49.7984 14.9619C49.7164 14.7295 49.6048 14.5267 49.4635 14.3535C49.3222 14.1758 49.1467 14.0391 48.9371 13.9434C48.732 13.8431 48.4882 13.793 48.2057 13.793C47.9049 13.793 47.6497 13.8568 47.44 13.9844C47.2304 14.112 47.0572 14.2874 46.9205 14.5107C46.7883 14.734 46.6904 14.9938 46.6266 15.29C46.5628 15.5863 46.5309 15.903 46.5309 16.2402ZM56.4336 20.1367C55.8867 20.1367 55.3923 20.0479 54.9502 19.8701C54.5127 19.6878 54.139 19.4349 53.8291 19.1113C53.5238 18.7878 53.2891 18.4072 53.125 17.9697C52.9609 17.5322 52.8789 17.0605 52.8789 16.5547V16.2812C52.8789 15.7025 52.9632 15.1784 53.1318 14.709C53.3005 14.2396 53.5352 13.8385 53.8359 13.5059C54.1367 13.1686 54.4922 12.9111 54.9023 12.7334C55.3125 12.5557 55.7568 12.4668 56.2354 12.4668C56.764 12.4668 57.2266 12.5557 57.623 12.7334C58.0195 12.9111 58.3477 13.1618 58.6074 13.4854C58.8717 13.8044 59.0677 14.1849 59.1953 14.627C59.3275 15.069 59.3936 15.5566 59.3936 16.0898V16.7939H53.6787V15.6113H57.7666V15.4814C57.7575 15.1852 57.6982 14.9072 57.5889 14.6475C57.484 14.3877 57.3223 14.1781 57.1035 14.0186C56.8848 13.859 56.5931 13.7793 56.2285 13.7793C55.9551 13.7793 55.7113 13.8385 55.4971 13.957C55.2874 14.071 55.112 14.2373 54.9707 14.4561C54.8294 14.6748 54.7201 14.9391 54.6426 15.249C54.5697 15.5544 54.5332 15.8984 54.5332 16.2812V16.5547C54.5332 16.8783 54.5765 17.179 54.6631 17.457C54.7542 17.7305 54.8864 17.9697 55.0596 18.1748C55.2327 18.3799 55.4424 18.5417 55.6885 18.6602C55.9346 18.7741 56.2148 18.8311 56.5293 18.8311C56.9258 18.8311 57.279 18.7513 57.5889 18.5918C57.8988 18.4323 58.1676 18.2067 58.3955 17.915L59.2637 18.7559C59.1042 18.9883 58.8968 19.2116 58.6416 19.4258C58.3864 19.6354 58.0742 19.8063 57.7051 19.9385C57.3405 20.0706 56.9167 20.1367 56.4336 20.1367ZM60.8471 19.1797C60.8471 18.9245 60.9337 18.7103 61.1068 18.5371C61.28 18.3594 61.5147 18.2705 61.8109 18.2705C62.1117 18.2705 62.3464 18.3594 62.515 18.5371C62.6882 18.7103 62.7748 18.9245 62.7748 19.1797C62.7748 19.4349 62.6882 19.6491 62.515 19.8223C62.3464 19.9954 62.1117 20.082 61.8109 20.082C61.5147 20.082 61.28 19.9954 61.1068 19.8223C60.9337 19.6491 60.8471 19.4349 60.8471 19.1797ZM64.8572 12.6035H66.5115V20.6426C66.5115 21.1484 66.4249 21.5745 66.2518 21.9209C66.0786 22.2718 65.8234 22.5361 65.4861 22.7139C65.1489 22.8962 64.7365 22.9873 64.2488 22.9873C64.103 22.9873 63.9526 22.9759 63.7977 22.9531C63.6382 22.9349 63.4878 22.9076 63.3465 22.8711L63.3533 21.5859C63.449 21.6042 63.5516 21.6178 63.6609 21.627C63.7658 21.6406 63.866 21.6475 63.9617 21.6475C64.1577 21.6475 64.3217 21.6133 64.4539 21.5449C64.5861 21.4766 64.6863 21.3695 64.7547 21.2236C64.823 21.0778 64.8572 20.8841 64.8572 20.6426V12.6035ZM64.7137 10.6621C64.7137 10.4115 64.798 10.2041 64.9666 10.04C65.1352 9.87142 65.3654 9.78711 65.657 9.78711C65.9533 9.78711 66.1834 9.87142 66.3475 10.04C66.5161 10.2041 66.6004 10.4115 66.6004 10.6621C66.6004 10.9082 66.5161 11.1133 66.3475 11.2773C66.1834 11.4414 65.9533 11.5234 65.657 11.5234C65.3654 11.5234 65.1352 11.4414 64.9666 11.2773C64.798 11.1133 64.7137 10.9082 64.7137 10.6621ZM72.5383 17.9971C72.5383 17.833 72.4973 17.6849 72.4152 17.5527C72.3332 17.416 72.176 17.293 71.9436 17.1836C71.7157 17.0742 71.3784 16.974 70.9318 16.8828C70.5399 16.7962 70.1799 16.6937 69.8518 16.5752C69.5282 16.4521 69.2502 16.304 69.0178 16.1309C68.7854 15.9577 68.6053 15.7526 68.4777 15.5156C68.3501 15.2786 68.2863 15.0052 68.2863 14.6953C68.2863 14.3945 68.3524 14.1097 68.4846 13.8408C68.6167 13.5719 68.8059 13.335 69.052 13.1299C69.298 12.9248 69.5965 12.763 69.9475 12.6445C70.3029 12.526 70.6994 12.4668 71.1369 12.4668C71.7567 12.4668 72.2876 12.5716 72.7297 12.7812C73.1763 12.9863 73.5181 13.2666 73.7551 13.6221C73.9921 13.973 74.1105 14.3695 74.1105 14.8115H72.4631C72.4631 14.6156 72.413 14.4333 72.3127 14.2646C72.217 14.0915 72.0712 13.9525 71.8752 13.8477C71.6792 13.7383 71.4331 13.6836 71.1369 13.6836C70.8544 13.6836 70.6197 13.7292 70.4328 13.8203C70.2505 13.9069 70.1138 14.0208 70.0227 14.1621C69.9361 14.3034 69.8928 14.4583 69.8928 14.627C69.8928 14.75 69.9156 14.8617 69.9611 14.9619C70.0113 15.0576 70.0933 15.1465 70.2072 15.2285C70.3212 15.306 70.4761 15.3789 70.6721 15.4473C70.8726 15.5156 71.1232 15.5817 71.424 15.6455C71.9891 15.764 72.4745 15.9167 72.8801 16.1035C73.2902 16.2858 73.6047 16.5228 73.8234 16.8145C74.0422 17.1016 74.1516 17.4661 74.1516 17.9082C74.1516 18.2363 74.0809 18.5371 73.9396 18.8105C73.8029 19.0794 73.6024 19.3141 73.3381 19.5146C73.0738 19.7106 72.757 19.8633 72.3879 19.9727C72.0233 20.082 71.6132 20.1367 71.1574 20.1367C70.4875 20.1367 69.9201 20.0182 69.4553 19.7812C68.9904 19.5397 68.6372 19.2321 68.3957 18.8584C68.1587 18.4801 68.0402 18.0882 68.0402 17.6826H69.633C69.6512 17.988 69.7355 18.2318 69.8859 18.4141C70.0409 18.5918 70.2323 18.7217 70.4602 18.8037C70.6926 18.8812 70.9318 18.9199 71.1779 18.9199C71.4742 18.9199 71.7225 18.8812 71.923 18.8037C72.1236 18.7217 72.2762 18.6123 72.3811 18.4756C72.4859 18.3343 72.5383 18.1748 72.5383 17.9971Z" fill="white"/>
</svg>
