<svg width="200" height="49" viewBox="0 0 200 49" fill="none" xmlns="http://www.w3.org/2000/svg">
<rect width="200" height="49" rx="8" fill="#FAE64C"/>
<path d="M56.225 20.915V21.095C56.225 24.875 55.025 27.74 50.72 29.885L51.575 31.085C56.57 28.58 57.755 24.995 57.755 20.915H56.225ZM51.515 20.915V22.175H57.155V20.915H51.515ZM56.135 24.29L50.81 24.635L51.035 26L56.135 25.505V24.29ZM59.735 19.52V33.23H61.31V19.52H59.735ZM60.89 24.95V26.24H63.365V24.95H60.89ZM70.0238 20.915V21.095C70.0238 24.875 68.8238 27.74 64.5188 29.885L65.3738 31.085C70.3688 28.58 71.5538 24.995 71.5538 20.915H70.0238ZM65.3138 20.915V22.175H70.9538V20.915H65.3138ZM69.9338 24.29L64.6088 24.635L64.8338 26L69.9338 25.505V24.29ZM73.5338 19.52V33.23H75.1088V19.52H73.5338ZM74.6888 24.95V26.24H77.1638V24.95H74.6888ZM83.6877 27.26V30.545H85.2477V27.26H83.6877ZM84.4677 20.345C81.5727 20.345 79.4277 21.8 79.4277 24.02C79.4277 26.255 81.5727 27.695 84.4677 27.695C87.3777 27.695 89.5077 26.255 89.5077 24.02C89.5077 21.8 87.3777 20.345 84.4677 20.345ZM84.4677 21.59C86.5227 21.59 87.9777 22.535 87.9777 24.02C87.9777 25.52 86.5227 26.45 84.4677 26.45C82.4277 26.45 80.9577 25.52 80.9577 24.02C80.9577 22.535 82.4277 21.59 84.4677 21.59ZM78.2877 30.275V31.565H90.7077V30.275H78.2877ZM92.0865 30.35V31.64H104.506V30.35H92.0865ZM97.4865 27.56V30.875H99.0465V27.56H97.4865ZM93.5415 20.495V21.755H101.461V23.585H93.5715V27.38H95.1315V24.83H103.021V20.495H93.5415ZM93.5715 26.735V28.01H103.336V26.735H93.5715ZM109.254 30.35V31.64H121.674V30.35H109.254ZM114.654 27.56V30.875H116.214V27.56H114.654ZM110.709 20.495V21.755H118.629V23.585H110.739V27.38H112.299V24.83H120.189V20.495H110.709ZM110.739 26.735V28.01H120.504V26.735H110.739ZM124.358 20.9V22.16H133.118V20.9H124.358ZM123.053 30.05V31.34H135.443V30.05H123.053ZM132.278 20.9V22.385C132.278 24.155 132.278 26.165 131.753 28.88L133.328 29.03C133.838 26.135 133.838 24.215 133.838 22.385V20.9H132.278ZM146.572 19.55V29.48H148.147V19.55H146.572ZM139.192 31.7V32.975H148.537V31.7H139.192ZM139.192 28.475V32.18H140.767V28.475H139.192ZM140.752 20.465C138.682 20.465 137.107 21.875 137.107 23.885C137.107 25.865 138.682 27.305 140.752 27.305C142.822 27.305 144.382 25.865 144.382 23.885C144.382 21.875 142.822 20.465 140.752 20.465ZM140.752 21.815C141.952 21.815 142.852 22.625 142.852 23.885C142.852 25.115 141.952 25.925 140.752 25.925C139.552 25.925 138.637 25.115 138.637 23.885C138.637 22.625 139.552 21.815 140.752 21.815ZM163.08 19.535V33.245H164.64V19.535H163.08ZM164.28 25.04V26.345H166.77V25.04H164.28ZM153.945 21.65V22.91H161.985V21.65H153.945ZM158.01 23.9C156.045 23.9 154.605 25.22 154.605 27.095C154.605 28.985 156.045 30.305 158.01 30.305C159.96 30.305 161.4 28.985 161.4 27.095C161.4 25.22 159.96 23.9 158.01 23.9ZM158.01 25.19C159.105 25.19 159.9 25.94 159.9 27.095C159.9 28.25 159.105 29.015 158.01 29.015C156.9 29.015 156.105 28.25 156.105 27.095C156.105 25.94 156.9 25.19 158.01 25.19ZM157.2 19.73V22.175H158.775V19.73H157.2ZM177.554 19.535V33.245H179.129V19.535H177.554ZM173.534 20.99V21.26C173.534 24.92 171.869 27.635 167.924 29.54L168.749 30.8C173.459 28.505 175.079 25.055 175.079 20.99H173.534ZM168.599 20.99V22.25H174.239V20.99H168.599Z" fill="#111111"/>
<path fill-rule="evenodd" clip-rule="evenodd" d="M30 31.3116C35.5228 31.3116 40 28.1078 40 24.1558C40 20.2038 35.5228 17 30 17C24.4772 17 20 20.2038 20 24.1558C20 26.5244 21.6082 28.6242 24.0859 29.9266L23.4882 33.4355C23.416 33.8592 23.8992 34.1528 24.2697 33.9102L28.3815 31.2183C28.9083 31.2797 29.449 31.3116 30 31.3116Z" fill="#464646"/>
</svg>
