<svg width="62" height="30" viewBox="0 0 62 30" fill="none" xmlns="http://www.w3.org/2000/svg">
<rect y="27" width="62" height="3" fill="#ADA2D7"/>
<path d="M12.0272 7.17H10.4822V15.735H11.3822C12.7922 15.735 14.3522 15.66 16.1672 15.33L16.0022 14.01C14.5322 14.28 13.2272 14.385 12.0272 14.415V7.17ZM19.9322 5.61V10.995H18.3272V5.88H16.8722V18.48H18.3272V12.27H19.9322V19.155H21.4022V5.61H19.9322ZM34.8052 10.755C33.1702 11.1 31.7152 11.175 29.1502 11.19V7.71H33.6052V6.45H27.6052V12.45H28.7002C31.6102 12.45 33.2002 12.375 34.9552 12L34.8052 10.755ZM36.0952 17.7H30.4852V16.245H36.0952V17.7ZM36.0952 15.03H30.4852V13.545H28.9552V18.96H37.6252V13.545H36.0952V15.03ZM39.5452 8.67H37.6252V5.595H36.0802V12.84H37.6252V9.945H39.5452V8.67ZM50.524 9.24V10.905H47.704V9.24H50.524ZM46.189 12.165H42.994V9.96H46.189V12.165ZM47.704 12.165H50.524V15.63H52.069V5.625H50.524V7.995H47.704V6.51H46.189V8.745H42.994V6.51H41.464V13.425H47.704V12.165ZM44.809 17.64V14.655H43.249V18.9H52.384V17.64H44.809Z" fill="#111111"/>
</svg>
