<svg width="47" height="55" viewBox="0 0 47 55" fill="none" xmlns="http://www.w3.org/2000/svg">
<path d="M14.16 35.61V37.17H14.98V35.61H14.16ZM10.49 35.16V35.84H18.66V35.16H10.49ZM11.4 36.89V37.56H16.82V39.78H17.65V36.89H11.4ZM11.58 30.95V34.33H17.6V30.95H16.77V31.97H12.4V30.95H11.58ZM12.4 32.62H16.77V33.67H12.4V32.62ZM20.0492 31.64V37.49H24.1992V31.64H20.0492ZM23.3892 32.31V36.82H20.8592V32.31H23.3892ZM25.8092 30.74V39.78H26.6492V30.74H25.8092ZM26.4492 34.35V35.05H28.1292V34.35H26.4492ZM29.8684 31.66V32.34H35.6084V31.66H29.8684ZM28.8984 37.83V38.53H37.0684V37.83H28.8984ZM35.2484 31.66V32.77C35.2484 34.07 35.2484 35.36 34.8584 37.1L35.6784 37.18C36.0584 35.33 36.0584 34.1 36.0584 32.77V31.66H35.2484ZM35.4584 34.16L29.6284 34.4L29.7484 35.09L35.4584 34.78V34.16Z" fill="#111111"/>
<path d="M16 21.3603L16 1H32V20.8386L24.9798 12.9026L24.2308 12.056L23.4818 12.9026L16 21.3603Z" stroke="#ADA2D7" stroke-width="2"/>
<rect y="52" width="47" height="3" fill="#ADA2D7"/>
</svg>
