<svg width="47" height="55" viewBox="0 0 47 55" fill="none" xmlns="http://www.w3.org/2000/svg">
<path d="M14.16 33.42V34.8H14.98V33.42H14.16ZM14.04 31.29V31.57C14.04 32.52 12.55 33.22 10.92 33.35L11.19 33.98C13.09 33.8 14.77 32.93 14.77 31.57V31.29H14.04ZM14.4 31.29V31.57C14.4 32.93 16.08 33.8 17.97 33.98L18.24 33.35C16.61 33.22 15.12 32.51 15.12 31.57V31.29H14.4ZM11.24 31.02V31.67H17.93V31.02H11.24ZM11.25 36.35V37.01H17.91V36.35H11.25ZM10.49 34.49V35.16H18.69V34.49H10.49ZM14.58 37.45C12.84 37.45 11.86 37.86 11.86 38.64C11.86 39.43 12.84 39.83 14.58 39.83C16.32 39.83 17.29 39.43 17.29 38.64C17.29 37.86 16.32 37.45 14.58 37.45ZM14.58 38.02C15.77 38.02 16.45 38.23 16.45 38.64C16.45 39.05 15.77 39.26 14.58 39.26C13.38 39.26 12.71 39.05 12.71 38.64C12.71 38.23 13.38 38.02 14.58 38.02ZM14.17 35.52V36.77H14.99V35.52H14.17ZM22.0992 31.43C20.7692 31.43 19.8292 32.66 19.8292 34.58C19.8292 36.51 20.7692 37.74 22.0992 37.74C23.4292 37.74 24.3692 36.51 24.3692 34.58C24.3692 32.66 23.4292 31.43 22.0992 31.43ZM22.0992 32.18C22.9692 32.18 23.5792 33.12 23.5792 34.58C23.5792 36.05 22.9692 37.01 22.0992 37.01C21.2192 37.01 20.6192 36.05 20.6192 34.58C20.6192 33.12 21.2192 32.18 22.0992 32.18ZM25.8092 30.74V39.78H26.6492V30.74H25.8092ZM26.4492 34.35V35.05H28.1292V34.35H26.4492ZM30.8984 35.39V38.1H31.7184V35.39H30.8984ZM34.2384 35.39V38.1H35.0684V35.39H34.2384ZM28.8984 37.94V38.63H37.0884V37.94H28.8984ZM32.9784 31.31C31.0584 31.31 29.6884 32.22 29.6884 33.64C29.6884 35.05 31.0584 35.96 32.9784 35.96C34.8884 35.96 36.2584 35.05 36.2584 33.64C36.2584 32.22 34.8884 31.31 32.9784 31.31ZM32.9784 31.97C34.4284 31.97 35.4584 32.63 35.4584 33.64C35.4584 34.64 34.4284 35.3 32.9784 35.3C31.5284 35.3 30.4884 34.64 30.4884 33.64C30.4884 32.63 31.5284 31.97 32.9784 31.97Z" fill="#111111"/>
<path d="M35 8.38316L27.091 7.66526L24 0L20.909 7.67684L13 8.38316L19.006 13.86L17.202 22L24 17.6811L30.798 22L29.005 13.86L35 8.38316ZM24 15.5158L19.864 18.1442L20.964 13.1884L17.312 9.85368L22.13 9.41368L24 4.74737L25.881 9.42526L30.699 9.86526L27.047 13.2L28.147 18.1558L24 15.5158Z" fill="#ADA2D7"/>
<rect y="52" width="47" height="3" fill="#ADA2D7"/>
</svg>
