<svg width="55" height="28" viewBox="0 0 55 28" fill="none" xmlns="http://www.w3.org/2000/svg">
<path d="M18.3667 18H20.1367L21.9217 12.015C22.2967 10.815 22.6267 9.585 22.9567 8.34H23.0167C23.3617 9.57 23.6917 10.815 24.0667 12.015L25.8367 18H27.6817L24.0367 6.96H22.0117L18.3667 18ZM20.4217 14.865H25.5817V13.5H20.4217V14.865ZM30.7128 18.21C31.1478 18.21 31.4178 18.135 31.6428 18.06L31.4178 16.755C31.2678 16.785 31.2078 16.785 31.1328 16.785C30.9228 16.785 30.7278 16.62 30.7278 16.155V6.06H28.9878V16.065C28.9878 17.4 29.4528 18.21 30.7128 18.21ZM35.1805 18.21C35.6155 18.21 35.8855 18.135 36.1105 18.06L35.8855 16.755C35.7355 16.785 35.6755 16.785 35.6005 16.785C35.3905 16.785 35.1955 16.62 35.1955 16.155V6.06H33.4555V16.065C33.4555 17.4 33.9205 18.21 35.1805 18.21Z" fill="#999999"/>
</svg>
