<svg width="19" height="13" viewBox="0 0 19 13" fill="none" xmlns="http://www.w3.org/2000/svg">
<path d="M0.366699 12H2.1367L3.9217 6.015C4.2967 4.815 4.6267 3.585 4.9567 2.34H5.0167C5.3617 3.57 5.6917 4.815 6.0667 6.015L7.8367 12H9.6817L6.0367 0.959999H4.0117L0.366699 12ZM2.4217 8.865H7.5817V7.5H2.4217V8.865ZM12.7128 12.21C13.1478 12.21 13.4178 12.135 13.6428 12.06L13.4178 10.755C13.2678 10.785 13.2078 10.785 13.1328 10.785C12.9228 10.785 12.7278 10.62 12.7278 10.155V0.059999H10.9878V10.065C10.9878 11.4 11.4528 12.21 12.7128 12.21ZM17.1805 12.21C17.6155 12.21 17.8855 12.135 18.1105 12.06L17.8855 10.755C17.7355 10.785 17.6755 10.785 17.6005 10.785C17.3905 10.785 17.1955 10.62 17.1955 10.155V0.059999H15.4555V10.065C15.4555 11.4 15.9205 12.21 17.1805 12.21Z" fill="#999999"/>
</svg>
