<svg width="85" height="30" viewBox="0 0 85 30" fill="none" xmlns="http://www.w3.org/2000/svg">
<rect width="85" height="30" rx="10" fill="#999999"/>
<path d="M22.0865 11.373L19.1129 20H17.315L21.0611 10.0469H22.2096L22.0865 11.373ZM24.5748 20L21.5943 11.373L21.4645 10.0469H22.6197L26.3795 20H24.5748ZM24.4312 16.3086V17.6689H19.0172V16.3086H24.4312ZM30.6973 12.6035V13.8066H26.5273V12.6035H30.6973ZM27.7305 10.792H29.3779V17.9561C29.3779 18.1839 29.4098 18.3594 29.4736 18.4824C29.542 18.6009 29.6354 18.6807 29.7539 18.7217C29.8724 18.7627 30.0114 18.7832 30.1709 18.7832C30.2848 18.7832 30.3942 18.7764 30.499 18.7627C30.6038 18.749 30.6882 18.7354 30.752 18.7217L30.7588 19.9795C30.6221 20.0205 30.4626 20.057 30.2803 20.0889C30.1025 20.1208 29.8975 20.1367 29.665 20.1367C29.2868 20.1367 28.9518 20.0706 28.6602 19.9385C28.3685 19.8018 28.1406 19.5807 27.9766 19.2754C27.8125 18.9701 27.7305 18.5645 27.7305 18.0586V10.792ZM35.4594 12.6035V13.8066H31.2895V12.6035H35.4594ZM32.4926 10.792H34.14V17.9561C34.14 18.1839 34.1719 18.3594 34.2357 18.4824C34.3041 18.6009 34.3975 18.6807 34.516 18.7217C34.6345 18.7627 34.7735 18.7832 34.933 18.7832C35.0469 18.7832 35.1563 18.7764 35.2611 18.7627C35.3659 18.749 35.4503 18.7354 35.5141 18.7217L35.5209 19.9795C35.3842 20.0205 35.2247 20.057 35.0424 20.0889C34.8646 20.1208 34.6596 20.1367 34.4271 20.1367C34.0489 20.1367 33.7139 20.0706 33.4223 19.9385C33.1306 19.8018 32.9027 19.5807 32.7387 19.2754C32.5746 18.9701 32.4926 18.5645 32.4926 18.0586V10.792ZM38.5945 12.6035V20H36.9402V12.6035H38.5945ZM36.8309 10.6621C36.8309 10.4115 36.9129 10.2041 37.077 10.04C37.2456 9.87142 37.478 9.78711 37.7742 9.78711C38.0659 9.78711 38.296 9.87142 38.4646 10.04C38.6333 10.2041 38.7176 10.4115 38.7176 10.6621C38.7176 10.9082 38.6333 11.1133 38.4646 11.2773C38.296 11.4414 38.0659 11.5234 37.7742 11.5234C37.478 11.5234 37.2456 11.4414 37.077 11.2773C36.9129 11.1133 36.8309 10.9082 36.8309 10.6621ZM43.8898 12.6035V13.8066H39.7199V12.6035H43.8898ZM40.923 10.792H42.5705V17.9561C42.5705 18.1839 42.6024 18.3594 42.6662 18.4824C42.7346 18.6009 42.828 18.6807 42.9465 18.7217C43.065 18.7627 43.204 18.7832 43.3635 18.7832C43.4774 18.7832 43.5868 18.7764 43.6916 18.7627C43.7964 18.749 43.8807 18.7354 43.9445 18.7217L43.9514 19.9795C43.8146 20.0205 43.6551 20.057 43.4729 20.0889C43.2951 20.1208 43.09 20.1367 42.8576 20.1367C42.4794 20.1367 42.1444 20.0706 41.8527 19.9385C41.5611 19.8018 41.3332 19.5807 41.1691 19.2754C41.0051 18.9701 40.923 18.5645 40.923 18.0586V10.792ZM49.7115 18.2568V12.6035H51.3658V20H49.8072L49.7115 18.2568ZM49.9439 16.7188L50.4977 16.7051C50.4977 17.2018 50.443 17.6598 50.3336 18.0791C50.2242 18.4938 50.0556 18.8561 49.8277 19.166C49.5999 19.4714 49.3082 19.7106 48.9527 19.8838C48.5973 20.0524 48.1712 20.1367 47.6744 20.1367C47.3144 20.1367 46.984 20.0843 46.6832 19.9795C46.3824 19.8747 46.1227 19.7129 45.9039 19.4941C45.6897 19.2754 45.5234 18.9906 45.4049 18.6396C45.2864 18.2887 45.2271 17.8695 45.2271 17.3818V12.6035H46.8746V17.3955C46.8746 17.6644 46.9065 17.89 46.9703 18.0723C47.0341 18.25 47.1207 18.3936 47.2301 18.5029C47.3395 18.6123 47.4671 18.6898 47.6129 18.7354C47.7587 18.7809 47.9137 18.8037 48.0777 18.8037C48.5471 18.8037 48.9163 18.7126 49.1852 18.5303C49.4586 18.3434 49.6523 18.0928 49.7662 17.7783C49.8847 17.4639 49.9439 17.1107 49.9439 16.7188ZM57.666 18.4688V9.5H59.3203V20H57.8232L57.666 18.4688ZM52.8535 16.3838V16.2402C52.8535 15.6797 52.9196 15.1693 53.0518 14.709C53.1839 14.2441 53.3753 13.8454 53.626 13.5127C53.8766 13.1755 54.182 12.918 54.542 12.7402C54.902 12.5579 55.3076 12.4668 55.7588 12.4668C56.2054 12.4668 56.5973 12.5534 56.9346 12.7266C57.2718 12.8997 57.5589 13.1481 57.7959 13.4717C58.0329 13.7907 58.222 14.1735 58.3633 14.6201C58.5046 15.0622 58.6048 15.5544 58.6641 16.0967V16.5547C58.6048 17.0833 58.5046 17.5664 58.3633 18.0039C58.222 18.4414 58.0329 18.8197 57.7959 19.1387C57.5589 19.4577 57.2695 19.7038 56.9277 19.877C56.5905 20.0501 56.1963 20.1367 55.7451 20.1367C55.2985 20.1367 54.8952 20.0433 54.5352 19.8564C54.1797 19.6696 53.8766 19.4076 53.626 19.0703C53.3753 18.7331 53.1839 18.3366 53.0518 17.8809C52.9196 17.4206 52.8535 16.9215 52.8535 16.3838ZM54.501 16.2402V16.3838C54.501 16.721 54.5306 17.0355 54.5898 17.3271C54.6536 17.6188 54.7516 17.8763 54.8838 18.0996C55.016 18.3184 55.1868 18.4915 55.3965 18.6191C55.6107 18.7422 55.8659 18.8037 56.1621 18.8037C56.5358 18.8037 56.8434 18.7217 57.085 18.5576C57.3265 18.3936 57.5156 18.1725 57.6523 17.8945C57.7936 17.612 57.8893 17.2975 57.9395 16.9512V15.7139C57.9121 15.445 57.8551 15.1943 57.7686 14.9619C57.6865 14.7295 57.5749 14.5267 57.4336 14.3535C57.2923 14.1758 57.1169 14.0391 56.9072 13.9434C56.7021 13.8431 56.4583 13.793 56.1758 13.793C55.875 13.793 55.6198 13.8568 55.4102 13.9844C55.2005 14.112 55.0273 14.2874 54.8906 14.5107C54.7585 14.734 54.6605 14.9938 54.5967 15.29C54.5329 15.5863 54.501 15.903 54.501 16.2402ZM64.4037 20.1367C63.8568 20.1367 63.3624 20.0479 62.9203 19.8701C62.4828 19.6878 62.1091 19.4349 61.7992 19.1113C61.4939 18.7878 61.2592 18.4072 61.0951 17.9697C60.9311 17.5322 60.849 17.0605 60.849 16.5547V16.2812C60.849 15.7025 60.9333 15.1784 61.102 14.709C61.2706 14.2396 61.5053 13.8385 61.8061 13.5059C62.1068 13.1686 62.4623 12.9111 62.8725 12.7334C63.2826 12.5557 63.727 12.4668 64.2055 12.4668C64.7341 12.4668 65.1967 12.5557 65.5932 12.7334C65.9896 12.9111 66.3178 13.1618 66.5775 13.4854C66.8419 13.8044 67.0378 14.1849 67.1654 14.627C67.2976 15.069 67.3637 15.5566 67.3637 16.0898V16.7939H61.6488V15.6113H65.7367V15.4814C65.7276 15.1852 65.6684 14.9072 65.559 14.6475C65.4542 14.3877 65.2924 14.1781 65.0736 14.0186C64.8549 13.859 64.5632 13.7793 64.1986 13.7793C63.9252 13.7793 63.6814 13.8385 63.4672 13.957C63.2576 14.071 63.0821 14.2373 62.9408 14.4561C62.7995 14.6748 62.6902 14.9391 62.6127 15.249C62.5398 15.5544 62.5033 15.8984 62.5033 16.2812V16.5547C62.5033 16.8783 62.5466 17.179 62.6332 17.457C62.7243 17.7305 62.8565 17.9697 63.0297 18.1748C63.2029 18.3799 63.4125 18.5417 63.6586 18.6602C63.9047 18.7741 64.185 18.8311 64.4994 18.8311C64.8959 18.8311 65.2491 18.7513 65.559 18.5918C65.8689 18.4323 66.1378 18.2067 66.3656 17.915L67.2338 18.7559C67.0743 18.9883 66.8669 19.2116 66.6117 19.4258C66.3565 19.6354 66.0443 19.8063 65.6752 19.9385C65.3106 20.0706 64.8868 20.1367 64.4037 20.1367Z" fill="white"/>
</svg>
