<svg width="100" height="30" viewBox="0 0 100 30" fill="none" xmlns="http://www.w3.org/2000/svg">
<rect width="100" height="30" rx="10" fill="#999999"/>
<path d="M29.5865 11.373L26.6129 20H24.815L28.5611 10.0469H29.7096L29.5865 11.373ZM32.0748 20L29.0943 11.373L28.9645 10.0469H30.1197L33.8795 20H32.0748ZM31.9312 16.3086V17.6689H26.5172V16.3086H31.9312ZM38.1973 12.6035V13.8066H34.0273V12.6035H38.1973ZM35.2305 10.792H36.8779V17.9561C36.8779 18.1839 36.9098 18.3594 36.9736 18.4824C37.042 18.6009 37.1354 18.6807 37.2539 18.7217C37.3724 18.7627 37.5114 18.7832 37.6709 18.7832C37.7848 18.7832 37.8942 18.7764 37.999 18.7627C38.1038 18.749 38.1882 18.7354 38.252 18.7217L38.2588 19.9795C38.1221 20.0205 37.9626 20.057 37.7803 20.0889C37.6025 20.1208 37.3975 20.1367 37.165 20.1367C36.7868 20.1367 36.4518 20.0706 36.1602 19.9385C35.8685 19.8018 35.6406 19.5807 35.4766 19.2754C35.3125 18.9701 35.2305 18.5645 35.2305 18.0586V10.792ZM42.9594 12.6035V13.8066H38.7895V12.6035H42.9594ZM39.9926 10.792H41.64V17.9561C41.64 18.1839 41.6719 18.3594 41.7357 18.4824C41.8041 18.6009 41.8975 18.6807 42.016 18.7217C42.1345 18.7627 42.2735 18.7832 42.433 18.7832C42.5469 18.7832 42.6563 18.7764 42.7611 18.7627C42.8659 18.749 42.9503 18.7354 43.0141 18.7217L43.0209 19.9795C42.8842 20.0205 42.7247 20.057 42.5424 20.0889C42.3646 20.1208 42.1596 20.1367 41.9271 20.1367C41.5489 20.1367 41.2139 20.0706 40.9223 19.9385C40.6306 19.8018 40.4027 19.5807 40.2387 19.2754C40.0746 18.9701 39.9926 18.5645 39.9926 18.0586V10.792ZM46.0945 12.6035V20H44.4402V12.6035H46.0945ZM44.3309 10.6621C44.3309 10.4115 44.4129 10.2041 44.577 10.04C44.7456 9.87142 44.978 9.78711 45.2742 9.78711C45.5659 9.78711 45.796 9.87142 45.9646 10.04C46.1333 10.2041 46.2176 10.4115 46.2176 10.6621C46.2176 10.9082 46.1333 11.1133 45.9646 11.2773C45.796 11.4414 45.5659 11.5234 45.2742 11.5234C44.978 11.5234 44.7456 11.4414 44.577 11.2773C44.4129 11.1133 44.3309 10.9082 44.3309 10.6621ZM51.3898 12.6035V13.8066H47.2199V12.6035H51.3898ZM48.423 10.792H50.0705V17.9561C50.0705 18.1839 50.1024 18.3594 50.1662 18.4824C50.2346 18.6009 50.328 18.6807 50.4465 18.7217C50.565 18.7627 50.704 18.7832 50.8635 18.7832C50.9774 18.7832 51.0868 18.7764 51.1916 18.7627C51.2964 18.749 51.3807 18.7354 51.4445 18.7217L51.4514 19.9795C51.3146 20.0205 51.1551 20.057 50.9729 20.0889C50.7951 20.1208 50.59 20.1367 50.3576 20.1367C49.9794 20.1367 49.6444 20.0706 49.3527 19.9385C49.0611 19.8018 48.8332 19.5807 48.6691 19.2754C48.5051 18.9701 48.423 18.5645 48.423 18.0586V10.792ZM57.2115 18.2568V12.6035H58.8658V20H57.3072L57.2115 18.2568ZM57.4439 16.7188L57.9977 16.7051C57.9977 17.2018 57.943 17.6598 57.8336 18.0791C57.7242 18.4938 57.5556 18.8561 57.3277 19.166C57.0999 19.4714 56.8082 19.7106 56.4527 19.8838C56.0973 20.0524 55.6712 20.1367 55.1744 20.1367C54.8144 20.1367 54.484 20.0843 54.1832 19.9795C53.8824 19.8747 53.6227 19.7129 53.4039 19.4941C53.1897 19.2754 53.0234 18.9906 52.9049 18.6396C52.7864 18.2887 52.7271 17.8695 52.7271 17.3818V12.6035H54.3746V17.3955C54.3746 17.6644 54.4065 17.89 54.4703 18.0723C54.5341 18.25 54.6207 18.3936 54.7301 18.5029C54.8395 18.6123 54.9671 18.6898 55.1129 18.7354C55.2587 18.7809 55.4137 18.8037 55.5777 18.8037C56.0471 18.8037 56.4163 18.7126 56.6852 18.5303C56.9586 18.3434 57.1523 18.0928 57.2662 17.7783C57.3847 17.4639 57.4439 17.1107 57.4439 16.7188ZM65.166 18.4688V9.5H66.8203V20H65.3232L65.166 18.4688ZM60.3535 16.3838V16.2402C60.3535 15.6797 60.4196 15.1693 60.5518 14.709C60.6839 14.2441 60.8753 13.8454 61.126 13.5127C61.3766 13.1755 61.682 12.918 62.042 12.7402C62.402 12.5579 62.8076 12.4668 63.2588 12.4668C63.7054 12.4668 64.0973 12.5534 64.4346 12.7266C64.7718 12.8997 65.0589 13.1481 65.2959 13.4717C65.5329 13.7907 65.722 14.1735 65.8633 14.6201C66.0046 15.0622 66.1048 15.5544 66.1641 16.0967V16.5547C66.1048 17.0833 66.0046 17.5664 65.8633 18.0039C65.722 18.4414 65.5329 18.8197 65.2959 19.1387C65.0589 19.4577 64.7695 19.7038 64.4277 19.877C64.0905 20.0501 63.6963 20.1367 63.2451 20.1367C62.7985 20.1367 62.3952 20.0433 62.0352 19.8564C61.6797 19.6696 61.3766 19.4076 61.126 19.0703C60.8753 18.7331 60.6839 18.3366 60.5518 17.8809C60.4196 17.4206 60.3535 16.9215 60.3535 16.3838ZM62.001 16.2402V16.3838C62.001 16.721 62.0306 17.0355 62.0898 17.3271C62.1536 17.6188 62.2516 17.8763 62.3838 18.0996C62.516 18.3184 62.6868 18.4915 62.8965 18.6191C63.1107 18.7422 63.3659 18.8037 63.6621 18.8037C64.0358 18.8037 64.3434 18.7217 64.585 18.5576C64.8265 18.3936 65.0156 18.1725 65.1523 17.8945C65.2936 17.612 65.3893 17.2975 65.4395 16.9512V15.7139C65.4121 15.445 65.3551 15.1943 65.2686 14.9619C65.1865 14.7295 65.0749 14.5267 64.9336 14.3535C64.7923 14.1758 64.6169 14.0391 64.4072 13.9434C64.2021 13.8431 63.9583 13.793 63.6758 13.793C63.375 13.793 63.1198 13.8568 62.9102 13.9844C62.7005 14.112 62.5273 14.2874 62.3906 14.5107C62.2585 14.734 62.1605 14.9938 62.0967 15.29C62.0329 15.5863 62.001 15.903 62.001 16.2402ZM71.9037 20.1367C71.3568 20.1367 70.8624 20.0479 70.4203 19.8701C69.9828 19.6878 69.6091 19.4349 69.2992 19.1113C68.9939 18.7878 68.7592 18.4072 68.5951 17.9697C68.4311 17.5322 68.349 17.0605 68.349 16.5547V16.2812C68.349 15.7025 68.4333 15.1784 68.602 14.709C68.7706 14.2396 69.0053 13.8385 69.3061 13.5059C69.6068 13.1686 69.9623 12.9111 70.3725 12.7334C70.7826 12.5557 71.227 12.4668 71.7055 12.4668C72.2341 12.4668 72.6967 12.5557 73.0932 12.7334C73.4896 12.9111 73.8178 13.1618 74.0775 13.4854C74.3419 13.8044 74.5378 14.1849 74.6654 14.627C74.7976 15.069 74.8637 15.5566 74.8637 16.0898V16.7939H69.1488V15.6113H73.2367V15.4814C73.2276 15.1852 73.1684 14.9072 73.059 14.6475C72.9542 14.3877 72.7924 14.1781 72.5736 14.0186C72.3549 13.859 72.0632 13.7793 71.6986 13.7793C71.4252 13.7793 71.1814 13.8385 70.9672 13.957C70.7576 14.071 70.5821 14.2373 70.4408 14.4561C70.2995 14.6748 70.1902 14.9391 70.1127 15.249C70.0398 15.5544 70.0033 15.8984 70.0033 16.2812V16.5547C70.0033 16.8783 70.0466 17.179 70.1332 17.457C70.2243 17.7305 70.3565 17.9697 70.5297 18.1748C70.7029 18.3799 70.9125 18.5417 71.1586 18.6602C71.4047 18.7741 71.685 18.8311 71.9994 18.8311C72.3959 18.8311 72.7491 18.7513 73.059 18.5918C73.3689 18.4323 73.6378 18.2067 73.8656 17.915L74.7338 18.7559C74.5743 18.9883 74.3669 19.2116 74.1117 19.4258C73.8565 19.6354 73.5443 19.8063 73.1752 19.9385C72.8106 20.0706 72.3868 20.1367 71.9037 20.1367Z" fill="white"/>
</svg>
