<svg width="85" height="30" viewBox="0 0 85 30" fill="none" xmlns="http://www.w3.org/2000/svg">
<rect width="85" height="30" rx="10" fill="#999999"/>
<path d="M16.9176 15.502H14.3814L14.3678 14.251H16.5826C16.9563 14.251 17.273 14.1963 17.5328 14.0869C17.7971 13.973 17.9977 13.8112 18.1344 13.6016C18.2711 13.3874 18.3395 13.1299 18.3395 12.8291C18.3395 12.4964 18.2757 12.2253 18.148 12.0156C18.0204 11.806 17.8245 11.6533 17.5602 11.5576C17.3004 11.4619 16.9677 11.4141 16.5621 11.4141H14.901V20H13.1852V10.0469H16.5621C17.109 10.0469 17.5966 10.0993 18.025 10.2041C18.4579 10.3089 18.8248 10.473 19.1256 10.6963C19.4309 10.915 19.6611 11.193 19.816 11.5303C19.9755 11.8675 20.0553 12.2686 20.0553 12.7334C20.0553 13.1436 19.9573 13.5195 19.7613 13.8613C19.5654 14.1986 19.276 14.4743 18.8932 14.6885C18.5104 14.9027 18.0341 15.0303 17.4645 15.0713L16.9176 15.502ZM16.8424 20H13.8414L14.6139 18.6396H16.8424C17.2298 18.6396 17.5533 18.5758 17.8131 18.4482C18.0729 18.3161 18.2665 18.1361 18.3941 17.9082C18.5263 17.6758 18.5924 17.4046 18.5924 17.0947C18.5924 16.7712 18.5354 16.4909 18.4215 16.2539C18.3076 16.0124 18.1275 15.8278 17.8814 15.7002C17.6354 15.568 17.3141 15.502 16.9176 15.502H14.9898L15.0035 14.251H17.5123L17.902 14.7227C18.4488 14.7409 18.8977 14.8617 19.2486 15.085C19.6041 15.3083 19.8684 15.5977 20.0416 15.9531C20.2148 16.3086 20.3014 16.6914 20.3014 17.1016C20.3014 17.735 20.1624 18.266 19.8844 18.6943C19.6109 19.1227 19.2167 19.4486 18.7018 19.6719C18.1868 19.8906 17.567 20 16.8424 20ZM26.1367 18.5166V14.9893C26.1367 14.7249 26.0889 14.4971 25.9932 14.3057C25.8975 14.1143 25.7516 13.9661 25.5557 13.8613C25.3643 13.7565 25.1227 13.7041 24.8311 13.7041C24.5622 13.7041 24.3298 13.7497 24.1338 13.8408C23.9378 13.932 23.7852 14.055 23.6758 14.21C23.5664 14.3649 23.5117 14.5404 23.5117 14.7363H21.8711C21.8711 14.4447 21.9417 14.1621 22.083 13.8887C22.2243 13.6152 22.4294 13.3714 22.6982 13.1572C22.9671 12.943 23.2884 12.7744 23.6621 12.6514C24.0358 12.5283 24.4551 12.4668 24.9199 12.4668C25.4759 12.4668 25.9681 12.5602 26.3965 12.7471C26.8294 12.9339 27.1689 13.2165 27.415 13.5947C27.6657 13.9684 27.791 14.4378 27.791 15.0029V18.291C27.791 18.6283 27.8138 18.9313 27.8594 19.2002C27.9095 19.4645 27.9801 19.6947 28.0713 19.8906V20H26.3828C26.3053 19.8223 26.2438 19.5967 26.1982 19.3232C26.1572 19.0452 26.1367 18.7764 26.1367 18.5166ZM26.376 15.502L26.3896 16.5205H25.207C24.9017 16.5205 24.6328 16.5501 24.4004 16.6094C24.168 16.6641 23.9743 16.7461 23.8193 16.8555C23.6644 16.9648 23.5482 17.097 23.4707 17.252C23.3932 17.4069 23.3545 17.5824 23.3545 17.7783C23.3545 17.9743 23.4001 18.1543 23.4912 18.3184C23.5824 18.4779 23.7145 18.6032 23.8877 18.6943C24.0654 18.7855 24.2796 18.8311 24.5303 18.8311C24.8675 18.8311 25.1615 18.7627 25.4121 18.626C25.6673 18.4847 25.8678 18.3138 26.0137 18.1133C26.1595 17.9082 26.237 17.7145 26.2461 17.5322L26.7793 18.2637C26.7246 18.4505 26.6312 18.651 26.499 18.8652C26.3669 19.0794 26.1937 19.2845 25.9795 19.4805C25.7699 19.6719 25.5169 19.8291 25.2207 19.9521C24.929 20.0752 24.5918 20.1367 24.209 20.1367C23.7259 20.1367 23.2952 20.041 22.917 19.8496C22.5387 19.6536 22.2425 19.3916 22.0283 19.0635C21.8141 18.7308 21.707 18.3548 21.707 17.9355C21.707 17.5436 21.7799 17.1973 21.9258 16.8965C22.0762 16.5911 22.2949 16.3359 22.582 16.1309C22.8737 15.9258 23.2292 15.7708 23.6484 15.666C24.0677 15.5566 24.5462 15.502 25.084 15.502H26.376ZM32.6352 18.8242C32.904 18.8242 33.1456 18.7718 33.3598 18.667C33.5785 18.5576 33.754 18.4072 33.8861 18.2158C34.0229 18.0244 34.098 17.8034 34.1117 17.5527H35.6635C35.6544 18.0312 35.5131 18.4665 35.2396 18.8584C34.9662 19.2503 34.6039 19.5625 34.1527 19.7949C33.7016 20.0228 33.2025 20.1367 32.6557 20.1367C32.0906 20.1367 31.5984 20.041 31.1791 19.8496C30.7598 19.6536 30.4112 19.3848 30.1332 19.043C29.8552 18.7012 29.6456 18.307 29.5043 17.8604C29.3676 17.4137 29.2992 16.9352 29.2992 16.4248V16.1855C29.2992 15.6751 29.3676 15.1966 29.5043 14.75C29.6456 14.2988 29.8552 13.9023 30.1332 13.5605C30.4112 13.2188 30.7598 12.9521 31.1791 12.7607C31.5984 12.5648 32.0883 12.4668 32.6488 12.4668C33.2413 12.4668 33.7608 12.5853 34.2074 12.8223C34.654 13.0547 35.0049 13.3805 35.2602 13.7998C35.5199 14.2145 35.6544 14.6976 35.6635 15.249H34.1117C34.098 14.9756 34.0297 14.7295 33.9066 14.5107C33.7882 14.2874 33.6195 14.1097 33.4008 13.9775C33.1866 13.8454 32.9291 13.7793 32.6283 13.7793C32.2956 13.7793 32.0199 13.8477 31.8012 13.9844C31.5824 14.1165 31.4115 14.2988 31.2885 14.5312C31.1654 14.7591 31.0766 15.0166 31.0219 15.3037C30.9717 15.5863 30.9467 15.8802 30.9467 16.1855V16.4248C30.9467 16.7301 30.9717 17.0264 31.0219 17.3135C31.072 17.6006 31.1586 17.8581 31.2816 18.0859C31.4092 18.3092 31.5824 18.4893 31.8012 18.626C32.0199 18.7581 32.2979 18.8242 32.6352 18.8242ZM38.6893 9.5V20H37.035V9.5H38.6893ZM43.283 12.6035L40.0633 16.1719L38.2996 17.9766L37.8689 16.582L39.202 14.9346L41.2937 12.6035H43.283ZM41.6492 20L39.2498 16.5273L40.2889 15.3721L43.5564 20H41.6492ZM47.7443 15.0918V16.4043H44.1281V15.0918H47.7443ZM52.5475 20.1367C52.0006 20.1367 51.5061 20.0479 51.0641 19.8701C50.6266 19.6878 50.2529 19.4349 49.943 19.1113C49.6376 18.7878 49.4029 18.4072 49.2389 17.9697C49.0748 17.5322 48.9928 17.0605 48.9928 16.5547V16.2812C48.9928 15.7025 49.0771 15.1784 49.2457 14.709C49.4143 14.2396 49.649 13.8385 49.9498 13.5059C50.2506 13.1686 50.6061 12.9111 51.0162 12.7334C51.4264 12.5557 51.8707 12.4668 52.3492 12.4668C52.8779 12.4668 53.3404 12.5557 53.7369 12.7334C54.1334 12.9111 54.4615 13.1618 54.7213 13.4854C54.9856 13.8044 55.1816 14.1849 55.3092 14.627C55.4413 15.069 55.5074 15.5566 55.5074 16.0898V16.7939H49.7926V15.6113H53.8805V15.4814C53.8714 15.1852 53.8121 14.9072 53.7027 14.6475C53.5979 14.3877 53.4361 14.1781 53.2174 14.0186C52.9986 13.859 52.707 13.7793 52.3424 13.7793C52.0689 13.7793 51.8251 13.8385 51.6109 13.957C51.4013 14.071 51.2258 14.2373 51.0846 14.4561C50.9433 14.6748 50.8339 14.9391 50.7564 15.249C50.6835 15.5544 50.6471 15.8984 50.6471 16.2812V16.5547C50.6471 16.8783 50.6904 17.179 50.777 17.457C50.8681 17.7305 51.0003 17.9697 51.1734 18.1748C51.3466 18.3799 51.5563 18.5417 51.8023 18.6602C52.0484 18.7741 52.3287 18.8311 52.6432 18.8311C53.0396 18.8311 53.3928 18.7513 53.7027 18.5918C54.0126 18.4323 54.2815 18.2067 54.5094 17.915L55.3775 18.7559C55.218 18.9883 55.0107 19.2116 54.7555 19.4258C54.5003 19.6354 54.1881 19.8063 53.8189 19.9385C53.4544 20.0706 53.0305 20.1367 52.5475 20.1367ZM58.5264 14.1826V20H56.8789V12.6035H58.4307L58.5264 14.1826ZM58.2324 16.0283L57.6992 16.0215C57.7038 15.4974 57.7767 15.0166 57.918 14.5791C58.0638 14.1416 58.2643 13.7656 58.5195 13.4512C58.7793 13.1367 59.0892 12.8952 59.4492 12.7266C59.8092 12.5534 60.2103 12.4668 60.6523 12.4668C61.0078 12.4668 61.3291 12.5169 61.6162 12.6172C61.9079 12.7129 62.1562 12.8701 62.3613 13.0889C62.571 13.3076 62.7305 13.5924 62.8398 13.9434C62.9492 14.2897 63.0039 14.7158 63.0039 15.2217V20H61.3496V15.2148C61.3496 14.8594 61.2972 14.5791 61.1924 14.374C61.0921 14.1644 60.944 14.0163 60.748 13.9297C60.5566 13.8385 60.3174 13.793 60.0303 13.793C59.7477 13.793 59.4948 13.8522 59.2715 13.9707C59.0482 14.0892 58.859 14.251 58.7041 14.4561C58.5537 14.6611 58.4375 14.8981 58.3555 15.167C58.2734 15.4359 58.2324 15.723 58.2324 16.0283ZM69.2973 18.4688V9.5H70.9516V20H69.4545L69.2973 18.4688ZM64.4848 16.3838V16.2402C64.4848 15.6797 64.5508 15.1693 64.683 14.709C64.8152 14.2441 65.0066 13.8454 65.2572 13.5127C65.5079 13.1755 65.8132 12.918 66.1732 12.7402C66.5333 12.5579 66.9389 12.4668 67.39 12.4668C67.8367 12.4668 68.2286 12.5534 68.5658 12.7266C68.9031 12.8997 69.1902 13.1481 69.4271 13.4717C69.6641 13.7907 69.8533 14.1735 69.9945 14.6201C70.1358 15.0622 70.2361 15.5544 70.2953 16.0967V16.5547C70.2361 17.0833 70.1358 17.5664 69.9945 18.0039C69.8533 18.4414 69.6641 18.8197 69.4271 19.1387C69.1902 19.4577 68.9008 19.7038 68.559 19.877C68.2217 20.0501 67.8275 20.1367 67.3764 20.1367C66.9298 20.1367 66.5264 20.0433 66.1664 19.8564C65.8109 19.6696 65.5079 19.4076 65.2572 19.0703C65.0066 18.7331 64.8152 18.3366 64.683 17.8809C64.5508 17.4206 64.4848 16.9215 64.4848 16.3838ZM66.1322 16.2402V16.3838C66.1322 16.721 66.1618 17.0355 66.2211 17.3271C66.2849 17.6188 66.3829 17.8763 66.515 18.0996C66.6472 18.3184 66.8181 18.4915 67.0277 18.6191C67.2419 18.7422 67.4971 18.8037 67.7934 18.8037C68.1671 18.8037 68.4747 18.7217 68.7162 18.5576C68.9577 18.3936 69.1469 18.1725 69.2836 17.8945C69.4249 17.612 69.5206 17.2975 69.5707 16.9512V15.7139C69.5434 15.445 69.4864 15.1943 69.3998 14.9619C69.3178 14.7295 69.2061 14.5267 69.0648 14.3535C68.9236 14.1758 68.7481 14.0391 68.5385 13.9434C68.3334 13.8431 68.0896 13.793 67.807 13.793C67.5062 13.793 67.251 13.8568 67.0414 13.9844C66.8318 14.112 66.6586 14.2874 66.5219 14.5107C66.3897 14.734 66.2917 14.9938 66.2279 15.29C66.1641 15.5863 66.1322 15.903 66.1322 16.2402Z" fill="white"/>
</svg>
