<svg width="100" height="30" viewBox="0 0 100 30" fill="none" xmlns="http://www.w3.org/2000/svg">
<rect width="100" height="30" rx="10" fill="#999999"/>
<path d="M24.3293 15.502H21.7932L21.7795 14.251H23.9944C24.3681 14.251 24.6848 14.1963 24.9446 14.0869C25.2089 13.973 25.4094 13.8112 25.5461 13.6016C25.6829 13.3874 25.7512 13.1299 25.7512 12.8291C25.7512 12.4964 25.6874 12.2253 25.5598 12.0156C25.4322 11.806 25.2362 11.6533 24.9719 11.5576C24.7122 11.4619 24.3795 11.4141 23.9739 11.4141H22.3127V20H20.5969V10.0469H23.9739C24.5207 10.0469 25.0084 10.0993 25.4368 10.2041C25.8697 10.3089 26.2366 10.473 26.5373 10.6963C26.8427 10.915 27.0728 11.193 27.2278 11.5303C27.3873 11.8675 27.467 12.2686 27.467 12.7334C27.467 13.1436 27.3691 13.5195 27.1731 13.8613C26.9771 14.1986 26.6877 14.4743 26.3049 14.6885C25.9221 14.9027 25.4459 15.0303 24.8762 15.0713L24.3293 15.502ZM24.2541 20H21.2532L22.0256 18.6396H24.2541C24.6415 18.6396 24.9651 18.5758 25.2248 18.4482C25.4846 18.3161 25.6783 18.1361 25.8059 17.9082C25.9381 17.6758 26.0041 17.4046 26.0041 17.0947C26.0041 16.7712 25.9472 16.4909 25.8332 16.2539C25.7193 16.0124 25.5393 15.8278 25.2932 15.7002C25.0471 15.568 24.7258 15.502 24.3293 15.502H22.4016L22.4153 14.251H24.9241L25.3137 14.7227C25.8606 14.7409 26.3095 14.8617 26.6604 15.085C27.0159 15.3083 27.2802 15.5977 27.4534 15.9531C27.6265 16.3086 27.7131 16.6914 27.7131 17.1016C27.7131 17.735 27.5741 18.266 27.2961 18.6943C27.0227 19.1227 26.6285 19.4486 26.1135 19.6719C25.5985 19.8906 24.9788 20 24.2541 20ZM33.5485 18.5166V14.9893C33.5485 14.7249 33.5006 14.4971 33.4049 14.3057C33.3092 14.1143 33.1634 13.9661 32.9674 13.8613C32.776 13.7565 32.5345 13.7041 32.2428 13.7041C31.9739 13.7041 31.7415 13.7497 31.5456 13.8408C31.3496 13.932 31.1969 14.055 31.0875 14.21C30.9782 14.3649 30.9235 14.5404 30.9235 14.7363H29.2829C29.2829 14.4447 29.3535 14.1621 29.4948 13.8887C29.636 13.6152 29.8411 13.3714 30.11 13.1572C30.3789 12.943 30.7002 12.7744 31.0739 12.6514C31.4476 12.5283 31.8668 12.4668 32.3317 12.4668C32.8877 12.4668 33.3799 12.5602 33.8082 12.7471C34.2412 12.9339 34.5807 13.2165 34.8268 13.5947C35.0775 13.9684 35.2028 14.4378 35.2028 15.0029V18.291C35.2028 18.6283 35.2256 18.9313 35.2711 19.2002C35.3213 19.4645 35.3919 19.6947 35.4831 19.8906V20H33.7946C33.7171 19.8223 33.6556 19.5967 33.61 19.3232C33.569 19.0452 33.5485 18.7764 33.5485 18.5166ZM33.7877 15.502L33.8014 16.5205H32.6188C32.3135 16.5205 32.0446 16.5501 31.8122 16.6094C31.5797 16.6641 31.386 16.7461 31.2311 16.8555C31.0762 16.9648 30.9599 17.097 30.8825 17.252C30.805 17.4069 30.7663 17.5824 30.7663 17.7783C30.7663 17.9743 30.8118 18.1543 30.903 18.3184C30.9941 18.4779 31.1263 18.6032 31.2995 18.6943C31.4772 18.7855 31.6914 18.8311 31.942 18.8311C32.2793 18.8311 32.5732 18.7627 32.8239 18.626C33.0791 18.4847 33.2796 18.3138 33.4254 18.1133C33.5713 17.9082 33.6487 17.7145 33.6579 17.5322L34.1911 18.2637C34.1364 18.4505 34.0429 18.651 33.9108 18.8652C33.7786 19.0794 33.6054 19.2845 33.3913 19.4805C33.1816 19.6719 32.9287 19.8291 32.6325 19.9521C32.3408 20.0752 32.0036 20.1367 31.6207 20.1367C31.1377 20.1367 30.707 20.041 30.3288 19.8496C29.9505 19.6536 29.6543 19.3916 29.4401 19.0635C29.2259 18.7308 29.1188 18.3548 29.1188 17.9355C29.1188 17.5436 29.1917 17.1973 29.3375 16.8965C29.4879 16.5911 29.7067 16.3359 29.9938 16.1309C30.2855 15.9258 30.6409 15.7708 31.0602 15.666C31.4795 15.5566 31.958 15.502 32.4957 15.502H33.7877ZM40.0469 18.8242C40.3158 18.8242 40.5573 18.7718 40.7715 18.667C40.9903 18.5576 41.1657 18.4072 41.2979 18.2158C41.4346 18.0244 41.5098 17.8034 41.5235 17.5527H43.0752C43.0661 18.0312 42.9249 18.4665 42.6514 18.8584C42.378 19.2503 42.0157 19.5625 41.5645 19.7949C41.1133 20.0228 40.6143 20.1367 40.0674 20.1367C39.5023 20.1367 39.0101 20.041 38.5909 19.8496C38.1716 19.6536 37.823 19.3848 37.545 19.043C37.267 18.7012 37.0573 18.307 36.9161 17.8604C36.7793 17.4137 36.711 16.9352 36.711 16.4248V16.1855C36.711 15.6751 36.7793 15.1966 36.9161 14.75C37.0573 14.2988 37.267 13.9023 37.545 13.5605C37.823 13.2188 38.1716 12.9521 38.5909 12.7607C39.0101 12.5648 39.5 12.4668 40.0606 12.4668C40.653 12.4668 41.1726 12.5853 41.6192 12.8223C42.0658 13.0547 42.4167 13.3805 42.6719 13.7998C42.9317 14.2145 43.0661 14.6976 43.0752 15.249H41.5235C41.5098 14.9756 41.4415 14.7295 41.3184 14.5107C41.1999 14.2874 41.0313 14.1097 40.8125 13.9775C40.5984 13.8454 40.3409 13.7793 40.0401 13.7793C39.7074 13.7793 39.4317 13.8477 39.2129 13.9844C38.9942 14.1165 38.8233 14.2988 38.7002 14.5312C38.5772 14.7591 38.4883 15.0166 38.4336 15.3037C38.3835 15.5863 38.3584 15.8802 38.3584 16.1855V16.4248C38.3584 16.7301 38.3835 17.0264 38.4336 17.3135C38.4838 17.6006 38.5704 17.8581 38.6934 18.0859C38.821 18.3092 38.9942 18.4893 39.2129 18.626C39.4317 18.7581 39.7097 18.8242 40.0469 18.8242ZM46.101 9.5V20H44.4467V9.5H46.101ZM50.6948 12.6035L47.475 16.1719L45.7114 17.9766L45.2807 16.582L46.6137 14.9346L48.7055 12.6035H50.6948ZM49.061 20L46.6616 16.5273L47.7006 15.3721L50.9682 20H49.061ZM55.1561 15.0918V16.4043H51.5399V15.0918H55.1561ZM59.9592 20.1367C59.4123 20.1367 58.9179 20.0479 58.4758 19.8701C58.0383 19.6878 57.6646 19.4349 57.3547 19.1113C57.0494 18.7878 56.8147 18.4072 56.6506 17.9697C56.4866 17.5322 56.4045 17.0605 56.4045 16.5547V16.2812C56.4045 15.7025 56.4888 15.1784 56.6575 14.709C56.8261 14.2396 57.0608 13.8385 57.3616 13.5059C57.6623 13.1686 58.0178 12.9111 58.428 12.7334C58.8381 12.5557 59.2825 12.4668 59.761 12.4668C60.2896 12.4668 60.7522 12.5557 61.1487 12.7334C61.5452 12.9111 61.8733 13.1618 62.1331 13.4854C62.3974 13.8044 62.5933 14.1849 62.7209 14.627C62.8531 15.069 62.9192 15.5566 62.9192 16.0898V16.7939H57.2043V15.6113H61.2922V15.4814C61.2831 15.1852 61.2239 14.9072 61.1145 14.6475C61.0097 14.3877 60.8479 14.1781 60.6291 14.0186C60.4104 13.859 60.1187 13.7793 59.7541 13.7793C59.4807 13.7793 59.2369 13.8385 59.0227 13.957C58.8131 14.071 58.6376 14.2373 58.4963 14.4561C58.3551 14.6748 58.2457 14.9391 58.1682 15.249C58.0953 15.5544 58.0588 15.8984 58.0588 16.2812V16.5547C58.0588 16.8783 58.1021 17.179 58.1887 17.457C58.2799 17.7305 58.412 17.9697 58.5852 18.1748C58.7584 18.3799 58.968 18.5417 59.2141 18.6602C59.4602 18.7741 59.7405 18.8311 60.0549 18.8311C60.4514 18.8311 60.8046 18.7513 61.1145 18.5918C61.4244 18.4323 61.6933 18.2067 61.9211 17.915L62.7893 18.7559C62.6298 18.9883 62.4224 19.2116 62.1672 19.4258C61.912 19.6354 61.5998 19.8063 61.2307 19.9385C60.8661 20.0706 60.4423 20.1367 59.9592 20.1367ZM65.9381 14.1826V20H64.2907V12.6035H65.8424L65.9381 14.1826ZM65.6442 16.0283L65.111 16.0215C65.1155 15.4974 65.1885 15.0166 65.3297 14.5791C65.4756 14.1416 65.6761 13.7656 65.9313 13.4512C66.1911 13.1367 66.501 12.8952 66.861 12.7266C67.221 12.5534 67.622 12.4668 68.0641 12.4668C68.4196 12.4668 68.7409 12.5169 69.028 12.6172C69.3196 12.7129 69.568 12.8701 69.7731 13.0889C69.9827 13.3076 70.1422 13.5924 70.2516 13.9434C70.361 14.2897 70.4157 14.7158 70.4157 15.2217V20H68.7614V15.2148C68.7614 14.8594 68.709 14.5791 68.6041 14.374C68.5039 14.1644 68.3558 14.0163 68.1598 13.9297C67.9684 13.8385 67.7291 13.793 67.442 13.793C67.1595 13.793 66.9066 13.8522 66.6832 13.9707C66.4599 14.0892 66.2708 14.251 66.1159 14.4561C65.9655 14.6611 65.8493 14.8981 65.7672 15.167C65.6852 15.4359 65.6442 15.723 65.6442 16.0283ZM76.709 18.4688V9.5H78.3633V20H76.8663L76.709 18.4688ZM71.8965 16.3838V16.2402C71.8965 15.6797 71.9626 15.1693 72.0948 14.709C72.2269 14.2441 72.4183 13.8454 72.669 13.5127C72.9196 13.1755 73.225 12.918 73.585 12.7402C73.945 12.5579 74.3506 12.4668 74.8018 12.4668C75.2484 12.4668 75.6403 12.5534 75.9776 12.7266C76.3148 12.8997 76.6019 13.1481 76.8389 13.4717C77.0759 13.7907 77.265 14.1735 77.4063 14.6201C77.5476 15.0622 77.6478 15.5544 77.7071 16.0967V16.5547C77.6478 17.0833 77.5476 17.5664 77.4063 18.0039C77.265 18.4414 77.0759 18.8197 76.8389 19.1387C76.6019 19.4577 76.3125 19.7038 75.9708 19.877C75.6335 20.0501 75.2393 20.1367 74.7881 20.1367C74.3415 20.1367 73.9382 20.0433 73.5782 19.8564C73.2227 19.6696 72.9196 19.4076 72.669 19.0703C72.4183 18.7331 72.2269 18.3366 72.0948 17.8809C71.9626 17.4206 71.8965 16.9215 71.8965 16.3838ZM73.544 16.2402V16.3838C73.544 16.721 73.5736 17.0355 73.6329 17.3271C73.6967 17.6188 73.7946 17.8763 73.9268 18.0996C74.059 18.3184 74.2299 18.4915 74.4395 18.6191C74.6537 18.7422 74.9089 18.8037 75.2051 18.8037C75.5788 18.8037 75.8864 18.7217 76.128 18.5576C76.3695 18.3936 76.5586 18.1725 76.6954 17.8945C76.8366 17.612 76.9323 17.2975 76.9825 16.9512V15.7139C76.9551 15.445 76.8982 15.1943 76.8116 14.9619C76.7295 14.7295 76.6179 14.5267 76.4766 14.3535C76.3353 14.1758 76.1599 14.0391 75.9502 13.9434C75.7452 13.8431 75.5013 13.793 75.2188 13.793C74.918 13.793 74.6628 13.8568 74.4532 13.9844C74.2435 14.112 74.0704 14.2874 73.9336 14.5107C73.8015 14.734 73.7035 14.9938 73.6397 15.29C73.5759 15.5863 73.544 15.903 73.544 16.2402Z" fill="white"/>
</svg>
