<svg width="47" height="55" viewBox="0 0 47 55" fill="none" xmlns="http://www.w3.org/2000/svg">
<path d="M12.9 31.73V32.65C12.9 33.94 11.98 35.11 10.62 35.59L11.05 36.25C12.57 35.7 13.59 34.31 13.59 32.65V31.73H12.9ZM13.06 31.73V32.65C13.06 34.24 14.1 35.56 15.6 36.07L16.03 35.42C14.69 34.97 13.75 33.87 13.75 32.65V31.73H13.06ZM10.84 31.49V32.16H15.79V31.49H10.84ZM17.07 30.75V37.36H17.91V30.75H17.07ZM12.1 38.9V39.58H18.18V38.9H12.1ZM12.1 36.74V39.2H12.92V36.74H12.1ZM20.7292 34.96V35.64H26.9392V34.96H20.7292ZM19.6992 37.95V38.65H27.8892V37.95H19.6992ZM23.3592 35.25V38.23H24.1892V35.25H23.3592ZM20.7292 31.46V35.26H21.5592V32.14H26.8492V31.46H20.7292ZM31.0984 34.8V36.47H31.9284V34.8H31.0984ZM33.9784 34.8V36.47H34.7984V34.8H33.9784ZM32.9784 30.85C30.9784 30.85 29.7984 31.4 29.7984 32.41C29.7984 33.42 30.9784 33.98 32.9784 33.98C34.9684 33.98 36.1584 33.42 36.1584 32.41C36.1584 31.4 34.9684 30.85 32.9784 30.85ZM32.9784 31.48C34.4484 31.48 35.2984 31.82 35.2984 32.41C35.2984 33.01 34.4484 33.35 32.9784 33.35C31.4984 33.35 30.6484 33.01 30.6484 32.41C30.6484 31.82 31.4984 31.48 32.9784 31.48ZM28.8884 34.52V35.19H37.0584V34.52H28.8884ZM29.8784 36.07V36.71H35.1984V37.51H29.8984V39.21H30.7184V38.11H36.0184V36.07H29.8784ZM29.8984 39.03V39.68H36.2884V39.03H29.8984Z" fill="#111111"/>
<path d="M23 12V13H24H34.9552C34.4499 18.6065 29.738 23 24 23C17.9249 23 13 18.0751 13 12C13 6.26196 17.3935 1.55007 23 1.04484V12Z" stroke="#A6A6AD" stroke-width="2"/>
</svg>
