<svg width="47" height="55" viewBox="0 0 47 55" fill="none" xmlns="http://www.w3.org/2000/svg">
<path d="M15.36 30.74V39.78H16.16V30.74H15.36ZM13.84 34.42V35.1H15.58V34.42H13.84ZM13.31 30.94V39.32H14.09V30.94H13.31ZM8.93 31.83V37.05H9.76V31.83H8.93ZM8.93 36.72V37.44H9.51C10.48 37.44 11.52 37.39 12.75 37.15L12.66 36.43C11.48 36.66 10.44 36.72 9.51 36.72H8.93ZM26.4769 30.74V35.56H27.3069V30.74H26.4769ZM27.0769 32.85V33.54H28.6469V32.85H27.0769ZM20.7069 34.57V35.26H21.4069C23.3069 35.26 24.3769 35.2 25.6169 34.94L25.5269 34.27C24.3169 34.51 23.2669 34.57 21.4069 34.57H20.7069ZM20.7069 31.33V35.04H21.5269V32.01H24.6869V31.33H20.7069ZM21.6069 36.05V39.63H27.3069V36.05H26.4869V37.16H22.4269V36.05H21.6069ZM22.4269 37.82H26.4869V38.95H22.4269V37.82ZM33.8061 32.4V33.07H36.4161V32.4H33.8061ZM33.8061 34.35V35.02H36.4361V34.35H33.8061ZM36.0961 30.75V37.44H36.9261V30.75H36.0961ZM31.1161 38.9V39.58H37.1461V38.9H31.1161ZM31.1161 36.79V39.25H31.9461V36.79H31.1161ZM29.9361 31.34V35.9H34.0161V31.34H33.2061V32.94H30.7561V31.34H29.9361ZM30.7561 33.59H33.2061V35.22H30.7561V33.59Z" fill="#111111"/>
<path d="M18 16H21H18ZM18 11H24H18ZM18 6H24H18Z" fill="#A6A6AD"/>
<path d="M18 16H21M18 11H24M18 6H24" stroke="#A6A6AD" stroke-width="2" stroke-linecap="round" stroke-linejoin="round"/>
<rect x="15" y="1" width="16" height="20" rx="2" stroke="#A6A6AD" stroke-width="2"/>
</svg>
