<svg width="55" height="30" viewBox="0 0 55 30" fill="none" xmlns="http://www.w3.org/2000/svg">
<path d="M1.62799 17H3.29299V11.81C3.29299 10.595 3.14299 9.335 3.06799 8.18H3.14299L4.29799 10.505L7.94299 17H9.74299V5.96H8.07799V11.12C8.07799 12.305 8.21299 13.655 8.31799 14.78H8.24299L7.08799 12.455L3.41299 5.96H1.62799V17ZM15.8086 17.21C17.8486 17.21 19.6936 15.62 19.6936 12.89C19.6936 10.13 17.8486 8.54 15.8086 8.54C13.7536 8.54 11.9236 10.13 11.9236 12.89C11.9236 15.62 13.7536 17.21 15.8086 17.21ZM15.8086 15.785C14.5036 15.785 13.7086 14.63 13.7086 12.89C13.7086 11.135 14.5036 9.98 15.8086 9.98C17.0986 9.98 17.9236 11.135 17.9236 12.89C17.9236 14.63 17.0986 15.785 15.8086 15.785ZM24.5721 17.21C25.5021 17.21 26.3571 16.715 26.9871 16.085H27.0321L27.1671 17H28.5921V5.06H26.8521V8.105L26.9271 9.47C26.2671 8.9 25.6521 8.54 24.7071 8.54C22.8771 8.54 21.1821 10.205 21.1821 12.89C21.1821 15.62 22.5021 17.21 24.5721 17.21ZM24.9921 15.77C23.7021 15.77 22.9671 14.735 22.9671 12.86C22.9671 11.09 23.8971 9.98 25.0521 9.98C25.6671 9.98 26.2521 10.19 26.8521 10.745V14.765C26.2671 15.455 25.6671 15.77 24.9921 15.77ZM34.6204 17.21C35.7004 17.21 36.6454 16.85 37.4104 16.34L36.8104 15.23C36.1954 15.62 35.5804 15.845 34.8454 15.845C33.4204 15.845 32.4304 14.915 32.2954 13.34H37.6504C37.6954 13.13 37.7254 12.8 37.7254 12.455C37.7254 10.115 36.5404 8.54 34.3654 8.54C32.4454 8.54 30.6004 10.205 30.6004 12.89C30.6004 15.605 32.3704 17.21 34.6204 17.21ZM32.2654 12.14C32.4454 10.7 33.3604 9.905 34.3954 9.905C35.5954 9.905 36.2254 10.715 36.2254 12.14H32.2654ZM40.6115 17.21C41.2565 17.21 41.7665 16.7 41.7665 15.995C41.7665 15.275 41.2565 14.78 40.6115 14.78C39.9515 14.78 39.4565 15.275 39.4565 15.995C39.4565 16.7 39.9515 17.21 40.6115 17.21ZM43.824 20.555C45.654 20.555 46.314 19.355 46.314 17.63V8.75H44.574V17.645C44.574 18.62 44.364 19.175 43.599 19.175C43.329 19.175 43.074 19.115 42.864 19.04L42.534 20.33C42.834 20.45 43.269 20.555 43.824 20.555ZM45.429 7.205C46.059 7.205 46.509 6.8 46.509 6.17C46.509 5.555 46.059 5.15 45.429 5.15C44.799 5.15 44.364 5.555 44.364 6.17C44.364 6.8 44.799 7.205 45.429 7.205ZM51.145 17.21C53.17 17.21 54.265 16.085 54.265 14.69C54.265 13.145 53.005 12.62 51.85 12.185C50.935 11.855 50.14 11.585 50.14 10.88C50.14 10.31 50.56 9.86 51.475 9.86C52.15 9.86 52.735 10.175 53.305 10.58L54.115 9.515C53.455 8.99 52.54 8.54 51.445 8.54C49.6 8.54 48.49 9.575 48.49 10.955C48.49 12.365 49.705 12.95 50.815 13.37C51.7 13.7 52.63 14.045 52.63 14.78C52.63 15.41 52.165 15.89 51.19 15.89C50.29 15.89 49.585 15.515 48.85 14.945L48.04 16.07C48.835 16.73 50.005 17.21 51.145 17.21Z" fill="black"/>
<rect y="26.7857" width="55" height="3.21429" fill="#ADA2D7"/>
</svg>
