<svg width="62" height="30" viewBox="0 0 62 30" fill="none" xmlns="http://www.w3.org/2000/svg">
<path d="M3.48005 8.145H8.23505V6.885H1.93505V15.84H3.04505C5.49005 15.84 7.32005 15.765 9.37505 15.39L9.21005 14.115C7.32005 14.445 5.67005 14.535 3.48005 14.55V8.145ZM13.9951 10.815H11.8801V5.595H10.3351V19.17H11.8801V12.09H13.9951V10.815ZM24.3889 8.415H16.7389V11.97H26.1889V10.785H18.2539V9.525H25.9189V6H16.7089V7.185H24.3889V8.415ZM18.2989 15.21H16.7539V18.9H26.2189V17.64H18.2989V15.21ZM15.1639 13.035V14.28H27.4639V13.035H15.1639ZM40.1168 10.755C38.4818 11.1 37.0268 11.175 34.4618 11.19V7.71H38.9168V6.45H32.9168V12.45H34.0118C36.9218 12.45 38.5118 12.375 40.2668 12L40.1168 10.755ZM41.4068 17.7H35.7968V16.245H41.4068V17.7ZM41.4068 15.03H35.7968V13.545H34.2668V18.96H42.9368V13.545H41.4068V15.03ZM44.8568 8.67H42.9368V5.595H41.3918V12.84H42.9368V9.945H44.8568V8.67ZM55.8357 9.24V10.905H53.0157V9.24H55.8357ZM51.5007 12.165H48.3057V9.96H51.5007V12.165ZM53.0157 12.165H55.8357V15.63H57.3807V5.625H55.8357V7.995H53.0157V6.51H51.5007V8.745H48.3057V6.51H46.7757V13.425H53.0157V12.165ZM50.1207 17.64V14.655H48.5607V18.9H57.6957V17.64H50.1207Z" fill="#999999"/>
</svg>
