<svg width="100" height="30" viewBox="0 0 100 30" fill="none" xmlns="http://www.w3.org/2000/svg">
<rect width="100" height="30" rx="10" fill="#999999"/>
<path d="M21.4151 10.0469V20H19.6993V10.0469H21.4151ZM25.4756 14.4014V15.7617H20.9776V14.4014H25.4756ZM26.043 10.0469V11.4141H20.9776V10.0469H26.043ZM28.8227 14.0117V20H27.1752V12.6035H28.7475L28.8227 14.0117ZM31.0854 12.5557L31.0717 14.0869C30.9715 14.0687 30.8621 14.055 30.7436 14.0459C30.6297 14.0368 30.5157 14.0322 30.4018 14.0322C30.1193 14.0322 29.8709 14.0732 29.6567 14.1553C29.4425 14.2327 29.2625 14.3467 29.1166 14.4971C28.9754 14.6429 28.866 14.8206 28.7885 15.0303C28.7111 15.2399 28.6655 15.4746 28.6518 15.7344L28.2758 15.7617C28.2758 15.2969 28.3214 14.8662 28.4125 14.4697C28.5037 14.0732 28.6404 13.7246 28.8227 13.4238C29.0096 13.123 29.242 12.8883 29.52 12.7197C29.8025 12.5511 30.1284 12.4668 30.4975 12.4668C30.5978 12.4668 30.7049 12.4759 30.8188 12.4941C30.9373 12.5124 31.0262 12.5329 31.0854 12.5557ZM31.7254 16.3838V16.2266C31.7254 15.6934 31.8029 15.1989 31.9579 14.7432C32.1128 14.2829 32.3361 13.8841 32.6278 13.5469C32.924 13.2051 33.284 12.9408 33.7079 12.7539C34.1362 12.5625 34.6193 12.4668 35.1571 12.4668C35.6994 12.4668 36.1825 12.5625 36.6063 12.7539C37.0347 12.9408 37.397 13.2051 37.6932 13.5469C37.9894 13.8841 38.215 14.2829 38.37 14.7432C38.5249 15.1989 38.6024 15.6934 38.6024 16.2266V16.3838C38.6024 16.917 38.5249 17.4115 38.37 17.8672C38.215 18.3229 37.9894 18.7217 37.6932 19.0635C37.397 19.4007 37.037 19.665 36.6131 19.8564C36.1893 20.0433 35.7085 20.1367 35.1707 20.1367C34.6284 20.1367 34.1431 20.0433 33.7147 19.8564C33.2909 19.665 32.9308 19.4007 32.6346 19.0635C32.3384 18.7217 32.1128 18.3229 31.9579 17.8672C31.8029 17.4115 31.7254 16.917 31.7254 16.3838ZM33.3729 16.2266V16.3838C33.3729 16.7165 33.4071 17.0309 33.4754 17.3271C33.5438 17.6234 33.6509 17.8831 33.7967 18.1064C33.9426 18.3298 34.1294 18.5052 34.3573 18.6328C34.5851 18.7604 34.8563 18.8242 35.1707 18.8242C35.4761 18.8242 35.7404 18.7604 35.9637 18.6328C36.1916 18.5052 36.3784 18.3298 36.5243 18.1064C36.6701 17.8831 36.7772 17.6234 36.8456 17.3271C36.9185 17.0309 36.9549 16.7165 36.9549 16.3838V16.2266C36.9549 15.8984 36.9185 15.5885 36.8456 15.2969C36.7772 15.0007 36.6678 14.7386 36.5174 14.5107C36.3716 14.2829 36.1847 14.1051 35.9569 13.9775C35.7336 13.8454 35.467 13.7793 35.1571 13.7793C34.8472 13.7793 34.5783 13.8454 34.3504 13.9775C34.1271 14.1051 33.9426 14.2829 33.7967 14.5107C33.6509 14.7386 33.5438 15.0007 33.4754 15.2969C33.4071 15.5885 33.3729 15.8984 33.3729 16.2266ZM41.717 14.1826V20H40.0696V12.6035H41.6213L41.717 14.1826ZM41.4231 16.0283L40.8899 16.0215C40.8944 15.4974 40.9674 15.0166 41.1086 14.5791C41.2545 14.1416 41.455 13.7656 41.7102 13.4512C41.97 13.1367 42.2799 12.8952 42.6399 12.7266C42.9999 12.5534 43.401 12.4668 43.843 12.4668C44.1985 12.4668 44.5198 12.5169 44.8069 12.6172C45.0985 12.7129 45.3469 12.8701 45.552 13.0889C45.7616 13.3076 45.9211 13.5924 46.0305 13.9434C46.1399 14.2897 46.1946 14.7158 46.1946 15.2217V20H44.5403V15.2148C44.5403 14.8594 44.4879 14.5791 44.3831 14.374C44.2828 14.1644 44.1347 14.0163 43.9387 13.9297C43.7473 13.8385 43.5081 13.793 43.2209 13.793C42.9384 13.793 42.6855 13.8522 42.4622 13.9707C42.2388 14.0892 42.0497 14.251 41.8948 14.4561C41.7444 14.6611 41.6282 14.8981 41.5461 15.167C41.4641 15.4359 41.4231 15.723 41.4231 16.0283ZM51.3668 12.6035V13.8066H47.1969V12.6035H51.3668ZM48.4 10.792H50.0475V17.9561C50.0475 18.1839 50.0794 18.3594 50.1432 18.4824C50.2116 18.6009 50.305 18.6807 50.4235 18.7217C50.542 18.7627 50.681 18.7832 50.8405 18.7832C50.9544 18.7832 51.0638 18.7764 51.1686 18.7627C51.2734 18.749 51.3577 18.7354 51.4215 18.7217L51.4284 19.9795C51.2916 20.0205 51.1321 20.057 50.9499 20.0889C50.7721 20.1208 50.567 20.1367 50.3346 20.1367C49.9564 20.1367 49.6214 20.0706 49.3297 19.9385C49.0381 19.8018 48.8102 19.5807 48.6461 19.2754C48.4821 18.9701 48.4 18.5645 48.4 18.0586V10.792ZM56.0538 15.0918V16.4043H52.4375V15.0918H56.0538ZM60.8569 20.1367C60.31 20.1367 59.8155 20.0479 59.3735 19.8701C58.936 19.6878 58.5623 19.4349 58.2524 19.1113C57.947 18.7878 57.7123 18.4072 57.5483 17.9697C57.3842 17.5322 57.3022 17.0605 57.3022 16.5547V16.2812C57.3022 15.7025 57.3865 15.1784 57.5551 14.709C57.7237 14.2396 57.9584 13.8385 58.2592 13.5059C58.56 13.1686 58.9155 12.9111 59.3256 12.7334C59.7358 12.5557 60.1801 12.4668 60.6586 12.4668C61.1873 12.4668 61.6498 12.5557 62.0463 12.7334C62.4428 12.9111 62.7709 13.1618 63.0307 13.4854C63.295 13.8044 63.491 14.1849 63.6186 14.627C63.7508 15.069 63.8168 15.5566 63.8168 16.0898V16.7939H58.102V15.6113H62.1899V15.4814C62.1808 15.1852 62.1215 14.9072 62.0122 14.6475C61.9073 14.3877 61.7456 14.1781 61.5268 14.0186C61.3081 13.859 61.0164 13.7793 60.6518 13.7793C60.3784 13.7793 60.1345 13.8385 59.9204 13.957C59.7107 14.071 59.5353 14.2373 59.394 14.4561C59.2527 14.6748 59.1433 14.9391 59.0659 15.249C58.9929 15.5544 58.9565 15.8984 58.9565 16.2812V16.5547C58.9565 16.8783 58.9998 17.179 59.0864 17.457C59.1775 17.7305 59.3097 17.9697 59.4829 18.1748C59.656 18.3799 59.8657 18.5417 60.1118 18.6602C60.3579 18.7741 60.6381 18.8311 60.9526 18.8311C61.3491 18.8311 61.7023 18.7513 62.0122 18.5918C62.322 18.4323 62.5909 18.2067 62.8188 17.915L63.687 18.7559C63.5275 18.9883 63.3201 19.2116 63.0649 19.4258C62.8097 19.6354 62.4975 19.8063 62.1284 19.9385C61.7638 20.0706 61.34 20.1367 60.8569 20.1367ZM66.8358 14.1826V20H65.1883V12.6035H66.7401L66.8358 14.1826ZM66.5418 16.0283L66.0086 16.0215C66.0132 15.4974 66.0861 15.0166 66.2274 14.5791C66.3732 14.1416 66.5737 13.7656 66.829 13.4512C67.0887 13.1367 67.3986 12.8952 67.7586 12.7266C68.1187 12.5534 68.5197 12.4668 68.9618 12.4668C69.3172 12.4668 69.6385 12.5169 69.9256 12.6172C70.2173 12.7129 70.4657 12.8701 70.6708 13.0889C70.8804 13.3076 71.0399 13.5924 71.1493 13.9434C71.2586 14.2897 71.3133 14.7158 71.3133 15.2217V20H69.659V15.2148C69.659 14.8594 69.6066 14.5791 69.5018 14.374C69.4015 14.1644 69.2534 14.0163 69.0575 13.9297C68.8661 13.8385 68.6268 13.793 68.3397 13.793C68.0571 13.793 67.8042 13.8522 67.5809 13.9707C67.3576 14.0892 67.1685 14.251 67.0135 14.4561C66.8631 14.6611 66.7469 14.8981 66.6649 15.167C66.5829 15.4359 66.5418 15.723 66.5418 16.0283ZM77.6067 18.4688V9.5H79.261V20H77.7639L77.6067 18.4688ZM72.7942 16.3838V16.2402C72.7942 15.6797 72.8603 15.1693 72.9924 14.709C73.1246 14.2441 73.316 13.8454 73.5667 13.5127C73.8173 13.1755 74.1226 12.918 74.4827 12.7402C74.8427 12.5579 75.2483 12.4668 75.6995 12.4668C76.1461 12.4668 76.538 12.5534 76.8752 12.7266C77.2125 12.8997 77.4996 13.1481 77.7366 13.4717C77.9736 13.7907 78.1627 14.1735 78.304 14.6201C78.4452 15.0622 78.5455 15.5544 78.6047 16.0967V16.5547C78.5455 17.0833 78.4452 17.5664 78.304 18.0039C78.1627 18.4414 77.9736 18.8197 77.7366 19.1387C77.4996 19.4577 77.2102 19.7038 76.8684 19.877C76.5312 20.0501 76.137 20.1367 75.6858 20.1367C75.2392 20.1367 74.8359 20.0433 74.4758 19.8564C74.1204 19.6696 73.8173 19.4076 73.5667 19.0703C73.316 18.7331 73.1246 18.3366 72.9924 17.8809C72.8603 17.4206 72.7942 16.9215 72.7942 16.3838ZM74.4417 16.2402V16.3838C74.4417 16.721 74.4713 17.0355 74.5305 17.3271C74.5943 17.6188 74.6923 17.8763 74.8245 18.0996C74.9566 18.3184 75.1275 18.4915 75.3372 18.6191C75.5514 18.7422 75.8066 18.8037 76.1028 18.8037C76.4765 18.8037 76.7841 18.7217 77.0256 18.5576C77.2672 18.3936 77.4563 18.1725 77.593 17.8945C77.7343 17.612 77.83 17.2975 77.8801 16.9512V15.7139C77.8528 15.445 77.7958 15.1943 77.7092 14.9619C77.6272 14.7295 77.5155 14.5267 77.3743 14.3535C77.233 14.1758 77.0575 14.0391 76.8479 13.9434C76.6428 13.8431 76.399 13.793 76.1165 13.793C75.8157 13.793 75.5605 13.8568 75.3508 13.9844C75.1412 14.112 74.968 14.2874 74.8313 14.5107C74.6991 14.734 74.6012 14.9938 74.5374 15.29C74.4736 15.5863 74.4417 15.903 74.4417 16.2402Z" fill="white"/>
</svg>
