<svg width="62" height="30" viewBox="0 0 62 30" fill="none" xmlns="http://www.w3.org/2000/svg">
<path d="M11.5272 7.17H9.98219V15.735H10.8822C12.2922 15.735 13.8522 15.66 15.6672 15.33L15.5022 14.01C14.0322 14.28 12.7272 14.385 11.5272 14.415V7.17ZM19.4322 5.61V10.995H17.8272V5.88H16.3722V18.48H17.8272V12.27H19.4322V19.155H20.9022V5.61H19.4322ZM34.3052 10.755C32.6702 11.1 31.2152 11.175 28.6502 11.19V7.71H33.1052V6.45H27.1052V12.45H28.2002C31.1102 12.45 32.7002 12.375 34.4552 12L34.3052 10.755ZM35.5952 17.7H29.9852V16.245H35.5952V17.7ZM35.5952 15.03H29.9852V13.545H28.4552V18.96H37.1252V13.545H35.5952V15.03ZM39.0452 8.67H37.1252V5.595H35.5802V12.84H37.1252V9.945H39.0452V8.67ZM50.024 9.24V10.905H47.204V9.24H50.024ZM45.689 12.165H42.494V9.96H45.689V12.165ZM47.204 12.165H50.024V15.63H51.569V5.625H50.024V7.995H47.204V6.51H45.689V8.745H42.494V6.51H40.964V13.425H47.204V12.165ZM44.309 17.64V14.655H42.749V18.9H51.884V17.64H44.309Z" fill="#999999"/>
</svg>
