<svg width="55" height="30" viewBox="0 0 55 30" fill="none" xmlns="http://www.w3.org/2000/svg">
<path d="M1.62799 18H3.29299V12.81C3.29299 11.595 3.14299 10.335 3.06799 9.18H3.14299L4.29799 11.505L7.94299 18H9.74299V6.96H8.07799V12.12C8.07799 13.305 8.21299 14.655 8.31799 15.78H8.24299L7.08799 13.455L3.41299 6.96H1.62799V18ZM15.8086 18.21C17.8486 18.21 19.6936 16.62 19.6936 13.89C19.6936 11.13 17.8486 9.54 15.8086 9.54C13.7536 9.54 11.9236 11.13 11.9236 13.89C11.9236 16.62 13.7536 18.21 15.8086 18.21ZM15.8086 16.785C14.5036 16.785 13.7086 15.63 13.7086 13.89C13.7086 12.135 14.5036 10.98 15.8086 10.98C17.0986 10.98 17.9236 12.135 17.9236 13.89C17.9236 15.63 17.0986 16.785 15.8086 16.785ZM24.5721 18.21C25.5021 18.21 26.3571 17.715 26.9871 17.085H27.0321L27.1671 18H28.5921V6.06H26.8521V9.105L26.9271 10.47C26.2671 9.9 25.6521 9.54 24.7071 9.54C22.8771 9.54 21.1821 11.205 21.1821 13.89C21.1821 16.62 22.5021 18.21 24.5721 18.21ZM24.9921 16.77C23.7021 16.77 22.9671 15.735 22.9671 13.86C22.9671 12.09 23.8971 10.98 25.0521 10.98C25.6671 10.98 26.2521 11.19 26.8521 11.745V15.765C26.2671 16.455 25.6671 16.77 24.9921 16.77ZM34.6204 18.21C35.7004 18.21 36.6454 17.85 37.4104 17.34L36.8104 16.23C36.1954 16.62 35.5804 16.845 34.8454 16.845C33.4204 16.845 32.4304 15.915 32.2954 14.34H37.6504C37.6954 14.13 37.7254 13.8 37.7254 13.455C37.7254 11.115 36.5404 9.54 34.3654 9.54C32.4454 9.54 30.6004 11.205 30.6004 13.89C30.6004 16.605 32.3704 18.21 34.6204 18.21ZM32.2654 13.14C32.4454 11.7 33.3604 10.905 34.3954 10.905C35.5954 10.905 36.2254 11.715 36.2254 13.14H32.2654ZM40.6115 18.21C41.2565 18.21 41.7665 17.7 41.7665 16.995C41.7665 16.275 41.2565 15.78 40.6115 15.78C39.9515 15.78 39.4565 16.275 39.4565 16.995C39.4565 17.7 39.9515 18.21 40.6115 18.21ZM43.824 21.555C45.654 21.555 46.314 20.355 46.314 18.63V9.75H44.574V18.645C44.574 19.62 44.364 20.175 43.599 20.175C43.329 20.175 43.074 20.115 42.864 20.04L42.534 21.33C42.834 21.45 43.269 21.555 43.824 21.555ZM45.429 8.205C46.059 8.205 46.509 7.8 46.509 7.17C46.509 6.555 46.059 6.15 45.429 6.15C44.799 6.15 44.364 6.555 44.364 7.17C44.364 7.8 44.799 8.205 45.429 8.205ZM51.145 18.21C53.17 18.21 54.265 17.085 54.265 15.69C54.265 14.145 53.005 13.62 51.85 13.185C50.935 12.855 50.14 12.585 50.14 11.88C50.14 11.31 50.56 10.86 51.475 10.86C52.15 10.86 52.735 11.175 53.305 11.58L54.115 10.515C53.455 9.99 52.54 9.54 51.445 9.54C49.6 9.54 48.49 10.575 48.49 11.955C48.49 13.365 49.705 13.95 50.815 14.37C51.7 14.7 52.63 15.045 52.63 15.78C52.63 16.41 52.165 16.89 51.19 16.89C50.29 16.89 49.585 16.515 48.85 15.945L48.04 17.07C48.835 17.73 50.005 18.21 51.145 18.21Z" fill="#999999"/>
</svg>
