<svg width="55" height="28" viewBox="0 0 55 28" fill="none" xmlns="http://www.w3.org/2000/svg">
<path d="M8.98883 18H10.7438V13.545H12.6038C14.8838 13.545 16.5938 12.48 16.5938 10.17C16.5938 7.77 14.8838 6.96 12.6038 6.96H8.98883V18ZM10.7438 12.15V8.37H12.4088C13.9988 8.37 14.8688 8.835 14.8688 10.17C14.8688 11.49 13.9988 12.15 12.4088 12.15H10.7438ZM15.0338 18H16.9838L13.5638 12.075L12.2738 13.095L15.0338 18ZM21.8982 18.21C22.9782 18.21 23.9232 17.85 24.6882 17.34L24.0882 16.23C23.4732 16.62 22.8582 16.845 22.1232 16.845C20.6982 16.845 19.7082 15.915 19.5732 14.34H24.9282C24.9732 14.13 25.0032 13.8 25.0032 13.455C25.0032 11.115 23.8182 9.54 21.6432 9.54C19.7232 9.54 17.8782 11.205 17.8782 13.89C17.8782 16.605 19.6482 18.21 21.8982 18.21ZM19.5432 13.14C19.7232 11.7 20.6382 10.905 21.6732 10.905C22.8732 10.905 23.5032 11.715 23.5032 13.14H19.5432ZM28.6013 18.21C29.5913 18.21 30.4763 17.715 31.2263 17.07H31.2863L31.4213 18H32.8463V13.05C32.8463 10.845 31.9013 9.54 29.8463 9.54C28.5263 9.54 27.3563 10.095 26.5163 10.62L27.1613 11.805C27.8513 11.355 28.6763 10.95 29.5463 10.95C30.7463 10.95 31.0913 11.79 31.1063 12.75C27.6863 13.125 26.1863 14.04 26.1863 15.81C26.1863 17.265 27.1913 18.21 28.6013 18.21ZM29.1413 16.83C28.4063 16.83 27.8513 16.5 27.8513 15.69C27.8513 14.76 28.6613 14.145 31.1063 13.86V15.87C30.4313 16.5 29.8613 16.83 29.1413 16.83ZM38.6393 18.21C39.5993 18.21 40.5743 17.85 41.3243 17.19L40.6193 16.035C40.1243 16.455 39.5093 16.785 38.8193 16.785C37.4393 16.785 36.4943 15.63 36.4943 13.89C36.4943 12.135 37.4693 10.98 38.8793 10.98C39.4343 10.98 39.8993 11.22 40.3493 11.61L41.1893 10.5C40.6043 9.96 39.8393 9.54 38.7893 9.54C36.6143 9.54 34.7093 11.13 34.7093 13.89C34.7093 16.62 36.4193 18.21 38.6393 18.21ZM45.5689 18.21C46.1839 18.21 46.7389 18.045 47.2039 17.895L46.8889 16.62C46.6339 16.725 46.2889 16.83 46.0039 16.83C45.1489 16.83 44.7889 16.305 44.7889 15.33V11.13H46.9489V9.75H44.7889V7.47H43.3489L43.1539 9.75L41.8639 9.84V11.13H43.0639V15.315C43.0639 17.04 43.7239 18.21 45.5689 18.21Z" fill="#999999"/>
</svg>
