<svg width="55" height="30" viewBox="0 0 55 30" fill="none" xmlns="http://www.w3.org/2000/svg">
<path d="M8.57229 18.21C10.9873 18.21 12.4573 16.755 12.4573 14.985C12.4573 13.365 11.5123 12.555 10.2073 12L8.69229 11.37C7.79229 10.995 6.90729 10.635 6.90729 9.69C6.90729 8.82 7.62729 8.28 8.75229 8.28C9.72729 8.28 10.5073 8.655 11.1973 9.255L12.0973 8.16C11.2723 7.305 10.0573 6.765 8.75229 6.765C6.65229 6.765 5.13729 8.07 5.13729 9.81C5.13729 11.415 6.30729 12.255 7.37229 12.69L8.90229 13.365C9.92229 13.8 10.6723 14.115 10.6723 15.12C10.6723 16.065 9.92229 16.68 8.60229 16.68C7.53729 16.68 6.44229 16.17 5.66229 15.375L4.64229 16.59C5.64729 17.61 7.04229 18.21 8.57229 18.21ZM14.3833 21.345H16.1233V18.675L16.0633 17.28C16.7533 17.88 17.5033 18.21 18.2383 18.21C20.0983 18.21 21.7933 16.575 21.7933 13.755C21.7933 11.205 20.6083 9.54 18.5233 9.54C17.5933 9.54 16.7083 10.05 15.9883 10.665H15.9433L15.7933 9.75H14.3833V21.345ZM17.9083 16.77C17.3983 16.77 16.7683 16.575 16.1233 16.02V11.985C16.8133 11.325 17.4283 10.98 18.0583 10.98C19.4383 10.98 20.0083 12.045 20.0083 13.77C20.0083 15.705 19.0933 16.77 17.9083 16.77ZM23.8315 18H25.5715V12.87C26.0815 11.565 26.8915 11.085 27.5515 11.085C27.8965 11.085 28.1065 11.13 28.3915 11.22L28.6915 9.72C28.4365 9.6 28.1815 9.54 27.7765 9.54C26.8915 9.54 26.0215 10.17 25.4365 11.235H25.3915L25.2415 9.75H23.8315V18ZM29.9692 18H31.7092V9.75H29.9692V18ZM30.8392 8.205C31.4692 8.205 31.9192 7.8 31.9192 7.17C31.9192 6.555 31.4692 6.15 30.8392 6.15C30.1942 6.15 29.7742 6.555 29.7742 7.17C29.7742 7.8 30.1942 8.205 30.8392 8.205ZM34.2905 18H36.0305V12.15C36.7505 11.43 37.2755 11.04 38.0405 11.04C39.0005 11.04 39.4205 11.595 39.4205 13.035V18H41.1605V12.81C41.1605 10.725 40.3805 9.54 38.6255 9.54C37.5005 9.54 36.6455 10.155 35.8955 10.905H35.8505L35.7005 9.75H34.2905V18ZM46.4858 21.705C49.1258 21.705 50.8058 20.415 50.8058 18.825C50.8058 17.415 49.7858 16.815 47.8358 16.815H46.3058C45.2708 16.815 44.9258 16.5 44.9258 16.02C44.9258 15.615 45.1208 15.375 45.3758 15.15C45.7508 15.315 46.1708 15.39 46.5308 15.39C48.2708 15.39 49.6358 14.37 49.6358 12.555C49.6358 11.925 49.4108 11.385 49.0958 11.055H50.6558V9.75H47.7458C47.4308 9.63 47.0108 9.54 46.5308 9.54C44.8358 9.54 43.3358 10.635 43.3358 12.51C43.3358 13.485 43.8758 14.28 44.4308 14.7V14.76C43.9658 15.09 43.5158 15.645 43.5158 16.29C43.5158 16.965 43.8308 17.4 44.2658 17.67V17.745C43.5008 18.195 43.0658 18.84 43.0658 19.545C43.0658 20.97 44.5058 21.705 46.4858 21.705ZM46.5308 14.28C45.6908 14.28 44.9858 13.605 44.9858 12.51C44.9858 11.4 45.6758 10.77 46.5308 10.77C47.4008 10.77 48.0908 11.4 48.0908 12.51C48.0908 13.605 47.3858 14.28 46.5308 14.28ZM46.7408 20.565C45.3758 20.565 44.5358 20.085 44.5358 19.29C44.5358 18.87 44.7458 18.45 45.2408 18.075C45.5858 18.165 45.9458 18.195 46.3358 18.195H47.5808C48.5858 18.195 49.1258 18.42 49.1258 19.11C49.1258 19.86 48.1808 20.565 46.7408 20.565Z" fill="#999999"/>
</svg>
