<svg width="55" height="30" viewBox="0 0 55 28" fill="none" xmlns="http://www.w3.org/2000/svg">
<path d="M17.8536 18H19.9236L23.3736 6.96H21.5886L19.9686 12.675C19.6086 13.95 19.3536 15.015 18.9636 16.29H18.8886C18.5136 15.015 18.2436 13.95 17.8836 12.675L16.2486 6.96H14.4036L17.8536 18ZM26.4886 18.21C27.6286 18.21 28.4236 17.625 29.1736 16.755H29.2186L29.3536 18H30.7786V9.75H29.0536V15.48C28.3636 16.35 27.8386 16.71 27.0736 16.71C26.0986 16.71 25.6786 16.155 25.6786 14.73V9.75H23.9536V14.94C23.9536 17.04 24.7336 18.21 26.4886 18.21ZM36.8103 18.21C37.8903 18.21 38.8353 17.85 39.6003 17.34L39.0003 16.23C38.3853 16.62 37.7703 16.845 37.0353 16.845C35.6103 16.845 34.6203 15.915 34.4853 14.34H39.8403C39.8853 14.13 39.9153 13.8 39.9153 13.455C39.9153 11.115 38.7303 9.54 36.5553 9.54C34.6353 9.54 32.7903 11.205 32.7903 13.89C32.7903 16.605 34.5603 18.21 36.8103 18.21ZM34.4553 13.14C34.6353 11.7 35.5503 10.905 36.5853 10.905C37.7853 10.905 38.4153 11.715 38.4153 13.14H34.4553Z" fill="#999999"/>
</svg>
