<svg width="55" height="30" viewBox="0 0 55 30" fill="none" xmlns="http://www.w3.org/2000/svg">
<path d="M9.48883 18H11.2438V13.545H13.1038C15.3838 13.545 17.0938 12.48 17.0938 10.17C17.0938 7.77 15.3838 6.96 13.1038 6.96H9.48883V18ZM11.2438 12.15V8.37H12.9088C14.4988 8.37 15.3688 8.835 15.3688 10.17C15.3688 11.49 14.4988 12.15 12.9088 12.15H11.2438ZM15.5338 18H17.4838L14.0638 12.075L12.7738 13.095L15.5338 18ZM22.3982 18.21C23.4782 18.21 24.4232 17.85 25.1882 17.34L24.5882 16.23C23.9732 16.62 23.3582 16.845 22.6232 16.845C21.1982 16.845 20.2082 15.915 20.0732 14.34H25.4282C25.4732 14.13 25.5032 13.8 25.5032 13.455C25.5032 11.115 24.3182 9.54 22.1432 9.54C20.2232 9.54 18.3782 11.205 18.3782 13.89C18.3782 16.605 20.1482 18.21 22.3982 18.21ZM20.0432 13.14C20.2232 11.7 21.1382 10.905 22.1732 10.905C23.3732 10.905 24.0032 11.715 24.0032 13.14H20.0432ZM29.1013 18.21C30.0913 18.21 30.9763 17.715 31.7263 17.07H31.7863L31.9213 18H33.3463V13.05C33.3463 10.845 32.4013 9.54 30.3463 9.54C29.0263 9.54 27.8563 10.095 27.0163 10.62L27.6613 11.805C28.3513 11.355 29.1763 10.95 30.0463 10.95C31.2463 10.95 31.5913 11.79 31.6063 12.75C28.1863 13.125 26.6863 14.04 26.6863 15.81C26.6863 17.265 27.6913 18.21 29.1013 18.21ZM29.6413 16.83C28.9063 16.83 28.3513 16.5 28.3513 15.69C28.3513 14.76 29.1613 14.145 31.6063 13.86V15.87C30.9313 16.5 30.3613 16.83 29.6413 16.83ZM39.1393 18.21C40.0993 18.21 41.0743 17.85 41.8243 17.19L41.1193 16.035C40.6243 16.455 40.0093 16.785 39.3193 16.785C37.9393 16.785 36.9943 15.63 36.9943 13.89C36.9943 12.135 37.9693 10.98 39.3793 10.98C39.9343 10.98 40.3993 11.22 40.8493 11.61L41.6893 10.5C41.1043 9.96 40.3393 9.54 39.2893 9.54C37.1143 9.54 35.2093 11.13 35.2093 13.89C35.2093 16.62 36.9193 18.21 39.1393 18.21ZM46.0689 18.21C46.6839 18.21 47.2389 18.045 47.7039 17.895L47.3889 16.62C47.1339 16.725 46.7889 16.83 46.5039 16.83C45.6489 16.83 45.2889 16.305 45.2889 15.33V11.13H47.4489V9.75H45.2889V7.47H43.8489L43.6539 9.75L42.3639 9.84V11.13H43.5639V15.315C43.5639 17.04 44.2239 18.21 46.0689 18.21Z" fill="#111111"/>
<rect y="27" width="55" height="3" fill="#ADA2D7"/>
</svg>
