<svg width="70" height="30" viewBox="0 0 70 30" fill="none" xmlns="http://www.w3.org/2000/svg">
<rect width="70" height="30" rx="10" fill="#111111"/>
<path d="M31.4612 8.43V22.365H33.4562V8.43H31.4612ZM29.0312 13.29V14.895H31.9262V13.29H29.0312ZM25.0112 10.635V11.865C25.0112 14.445 23.9162 17.1 21.5912 18.195L22.7612 19.77C25.3562 18.495 26.5862 15.255 26.5862 11.865V10.635H25.0112ZM25.4762 10.635V11.865C25.4762 15.15 26.6762 18.255 29.2862 19.485L30.4412 17.925C28.1162 16.875 27.0362 14.31 27.0362 11.865V10.635H25.4762ZM22.1612 9.78V11.385H29.8862V9.78H22.1612ZM38.69 9.99V10.86C38.69 12.63 37.715 14.445 35.405 15.21L36.395 16.785C39.08 15.9 40.325 13.515 40.325 10.86V9.99H38.69ZM39.095 9.99V10.86C39.095 13.335 40.295 15.51 42.935 16.305L43.88 14.745C41.645 14.07 40.715 12.48 40.715 10.86V9.99H39.095ZM35.93 9.375V10.965H43.43V9.375H35.93ZM44.54 8.445V16.68H46.535V8.445H44.54ZM45.98 11.64V13.275H48.38V11.64H45.98ZM42.005 16.935C39.11 16.935 37.295 17.94 37.295 19.635C37.295 21.33 39.11 22.335 42.005 22.335C44.885 22.335 46.7 21.33 46.7 19.635C46.7 17.94 44.885 16.935 42.005 16.935ZM42.005 18.495C43.775 18.495 44.72 18.855 44.72 19.635C44.72 20.415 43.775 20.805 42.005 20.805C40.235 20.805 39.275 20.415 39.275 19.635C39.275 18.855 40.235 18.495 42.005 18.495Z" fill="white"/>
</svg>
