<svg width="55" height="30" viewBox="0 0 55 30" fill="none" xmlns="http://www.w3.org/2000/svg">
<path d="M9.07229 17.21C11.4873 17.21 12.9573 15.755 12.9573 13.985C12.9573 12.365 12.0123 11.555 10.7073 11L9.19229 10.37C8.29229 9.995 7.40729 9.635 7.40729 8.69C7.40729 7.82 8.12729 7.28 9.25229 7.28C10.2273 7.28 11.0073 7.655 11.6973 8.255L12.5973 7.16C11.7723 6.305 10.5573 5.765 9.25229 5.765C7.15229 5.765 5.63729 7.07 5.63729 8.81C5.63729 10.415 6.80729 11.255 7.87229 11.69L9.40229 12.365C10.4223 12.8 11.1723 13.115 11.1723 14.12C11.1723 15.065 10.4223 15.68 9.10229 15.68C8.03729 15.68 6.94229 15.17 6.16229 14.375L5.14229 15.59C6.14729 16.61 7.54229 17.21 9.07229 17.21ZM14.8833 20.345H16.6233V17.675L16.5633 16.28C17.2533 16.88 18.0033 17.21 18.7383 17.21C20.5983 17.21 22.2933 15.575 22.2933 12.755C22.2933 10.205 21.1083 8.54 19.0233 8.54C18.0933 8.54 17.2083 9.05 16.4883 9.665H16.4433L16.2933 8.75H14.8833V20.345ZM18.4083 15.77C17.8983 15.77 17.2683 15.575 16.6233 15.02V10.985C17.3133 10.325 17.9283 9.98 18.5583 9.98C19.9383 9.98 20.5083 11.045 20.5083 12.77C20.5083 14.705 19.5933 15.77 18.4083 15.77ZM24.3315 17H26.0715V11.87C26.5815 10.565 27.3915 10.085 28.0515 10.085C28.3965 10.085 28.6065 10.13 28.8915 10.22L29.1915 8.72C28.9365 8.6 28.6815 8.54 28.2765 8.54C27.3915 8.54 26.5215 9.17 25.9365 10.235H25.8915L25.7415 8.75H24.3315V17ZM30.4692 17H32.2092V8.75H30.4692V17ZM31.3392 7.205C31.9692 7.205 32.4192 6.8 32.4192 6.17C32.4192 5.555 31.9692 5.15 31.3392 5.15C30.6942 5.15 30.2742 5.555 30.2742 6.17C30.2742 6.8 30.6942 7.205 31.3392 7.205ZM34.7905 17H36.5305V11.15C37.2505 10.43 37.7755 10.04 38.5405 10.04C39.5005 10.04 39.9205 10.595 39.9205 12.035V17H41.6605V11.81C41.6605 9.725 40.8805 8.54 39.1255 8.54C38.0005 8.54 37.1455 9.155 36.3955 9.905H36.3505L36.2005 8.75H34.7905V17ZM46.9858 20.705C49.6258 20.705 51.3058 19.415 51.3058 17.825C51.3058 16.415 50.2858 15.815 48.3358 15.815H46.8058C45.7708 15.815 45.4258 15.5 45.4258 15.02C45.4258 14.615 45.6208 14.375 45.8758 14.15C46.2508 14.315 46.6708 14.39 47.0308 14.39C48.7708 14.39 50.1358 13.37 50.1358 11.555C50.1358 10.925 49.9108 10.385 49.5958 10.055H51.1558V8.75H48.2458C47.9308 8.63 47.5108 8.54 47.0308 8.54C45.3358 8.54 43.8358 9.635 43.8358 11.51C43.8358 12.485 44.3758 13.28 44.9308 13.7V13.76C44.4658 14.09 44.0158 14.645 44.0158 15.29C44.0158 15.965 44.3308 16.4 44.7658 16.67V16.745C44.0008 17.195 43.5658 17.84 43.5658 18.545C43.5658 19.97 45.0058 20.705 46.9858 20.705ZM47.0308 13.28C46.1908 13.28 45.4858 12.605 45.4858 11.51C45.4858 10.4 46.1758 9.77 47.0308 9.77C47.9008 9.77 48.5908 10.4 48.5908 11.51C48.5908 12.605 47.8858 13.28 47.0308 13.28ZM47.2408 19.565C45.8758 19.565 45.0358 19.085 45.0358 18.29C45.0358 17.87 45.2458 17.45 45.7408 17.075C46.0858 17.165 46.4458 17.195 46.8358 17.195H48.0808C49.0858 17.195 49.6258 17.42 49.6258 18.11C49.6258 18.86 48.6808 19.565 47.2408 19.565Z" fill="#111111"/>
<rect y="26.7857" width="55" height="3.21429" fill="#ADA2D7"/>
</svg>
