<svg width="55" height="30" viewBox="0 0 55 30" fill="none" xmlns="http://www.w3.org/2000/svg">
<path d="M18.8536 18H20.9236L24.3736 6.96H22.5886L20.9686 12.675C20.6086 13.95 20.3536 15.015 19.9636 16.29H19.8886C19.5136 15.015 19.2436 13.95 18.8836 12.675L17.2486 6.96H15.4036L18.8536 18ZM27.4886 18.21C28.6286 18.21 29.4236 17.625 30.1736 16.755H30.2186L30.3536 18H31.7786V9.75H30.0536V15.48C29.3636 16.35 28.8386 16.71 28.0736 16.71C27.0986 16.71 26.6786 16.155 26.6786 14.73V9.75H24.9536V14.94C24.9536 17.04 25.7336 18.21 27.4886 18.21ZM37.8103 18.21C38.8903 18.21 39.8353 17.85 40.6003 17.34L40.0003 16.23C39.3853 16.62 38.7703 16.845 38.0353 16.845C36.6103 16.845 35.6203 15.915 35.4853 14.34H40.8403C40.8853 14.13 40.9153 13.8 40.9153 13.455C40.9153 11.115 39.7303 9.54 37.5553 9.54C35.6353 9.54 33.7903 11.205 33.7903 13.89C33.7903 16.605 35.5603 18.21 37.8103 18.21ZM35.4553 13.14C35.6353 11.7 36.5503 10.905 37.5853 10.905C38.7853 10.905 39.4153 11.715 39.4153 13.14H35.4553Z" fill="#111111"/>
<rect y="27" width="55" height="3" fill="#ADA2D7"/>
</svg>
